<?xml version="1.0" encoding="utf-8"?><svg viewBox="0 0 78 68" xmlns="http://www.w3.org/2000/svg" xmlns:xlink="http://www.w3.org/1999/xlink"><style>:root>svg{display:none}:root>svg:target{display:block}</style><svg fill="none" viewBox="0 0 76 51" id="advntg-delivery" xmlns="http://www.w3.org/2000/svg"><path d="M7.425 36.161a7.34 7.34 0 00-5.13 2.078A7.015 7.015 0 00.17 43.255c0 1.881.764 3.686 2.125 5.016a7.34 7.34 0 005.13 2.078 7.34 7.34 0 005.13-2.078 7.015 7.015 0 002.125-5.016 7.015 7.015 0 00-2.125-5.016 7.34 7.34 0 00-5.13-2.078zM42.288 36.148a7.373 7.373 0 00-4.03 1.196 7.13 7.13 0 00-2.673 3.184 6.947 6.947 0 00-.413 4.098c.28 1.376.971 2.64 1.986 3.632a7.308 7.308 0 003.715 1.942 7.408 7.408 0 004.192-.404 7.222 7.222 0 003.255-2.613 6.982 6.982 0 001.223-3.94 7.015 7.015 0 00-2.125-5.017 7.34 7.34 0 00-5.13-2.078zM72.22 11.974h-6.037v5.505h-5.098v-5.505H55.01a3.295 3.295 0 00-2.325.823 3.15 3.15 0 00-1.06 2.185v18.822a3.15 3.15 0 001.06 2.185c.634.563 1.47.859 2.325.823h17.21a3.294 3.294 0 002.325-.823 3.15 3.15 0 001.06-2.185V15.001a3.15 3.15 0 00-1.054-2.197 3.295 3.295 0 00-2.332-.83z" fill="#FF8E01"/><path d="M28.101 2.62A5.421 5.421 0 0026.046.669a5.575 5.575 0 00-2.782-.67H11.656a3.48 3.48 0 00-2.461.873 3.328 3.328 0 00-1.118 2.315V19.93H4.488a4.363 4.363 0 00-3.085 1.09A4.172 4.172 0 000 23.92v14.055a8.973 8.973 0 013.307-2.856 9.202 9.202 0 014.296-.984c4.672 0 8.513 3.235 8.832 7.321h16.928c.31-4.086 4.15-7.32 8.832-7.32a9.624 9.624 0 014.479 1.087v-.057L28.101 2.62zm6.772 23.722H14.558a.873.873 0 01-.617-.217.835.835 0 01-.282-.578V5.684a.835.835 0 01.282-.578.873.873 0 01.617-.216H23.4a.984.984 0 01.45.116c.139.075.256.18.343.31l11.463 19.862a.788.788 0 01-.041.79.815.815 0 01-.306.279.838.838 0 01-.407.095h-.03zM50.301 3.188h-3.627v32.054a7.927 7.927 0 012.987 2.571 7.695 7.695 0 011.347 3.662h17.209V38.27H50.3V3.188z" fill="#373F48"/></svg><svg fill="none" viewBox="0 0 66 65" id="advntg-individual" xmlns="http://www.w3.org/2000/svg"><g clip-path="url(#bclip0)"><path d="M34.904 5.967a1.904 1.904 0 10-3.808 0v8.159a1.904 1.904 0 103.808 0v-8.16zM23.495 17.512c.371.371.859.558 1.346.558a1.905 1.905 0 001.346-3.251l-4.08-4.08a1.904 1.904 0 10-2.692 2.694l4.08 4.079zM41.159 18.07c.487 0 .975-.187 1.346-.559l4.08-4.079a1.904 1.904 0 00-2.693-2.693l-4.08 4.08a1.903 1.903 0 001.347 3.25zM18.586 22.555c0-4.424-3.599-8.023-8.023-8.023-4.424 0-8.023 3.6-8.023 8.023 0 4.425 3.599 8.024 8.023 8.024 4.424 0 8.023-3.6 8.023-8.024zM63.46 22.555c0-4.424-3.599-8.023-8.023-8.023-4.424 0-8.023 3.6-8.023 8.023 0 4.425 3.599 8.024 8.023 8.024 4.424 0 8.023-3.6 8.023-8.024z" fill="#FF8E01"/><path fill-rule="evenodd" clip-rule="evenodd" d="M30.892 24.732c-.08-1.674-2.058-2.514-3.317-1.41l-10.697 9.389a8.778 8.778 0 015.43 7.577l.071 1.155 8.23-7.617a2 2 0 00.64-1.562l-.357-7.533zM33.443 24.655c.079-1.673 2.058-2.513 3.317-1.408l10.697 9.388a8.778 8.778 0 00-5.43 7.577l-.072 1.155-8.23-7.617a2 2 0 01-.639-1.562l.357-7.533z" fill="#373F48"/><path d="M.95 42.308c0-5.523 4.548-10 10.071-10s10.07 4.477 10.07 10v16.64a2 2 0 01-2 2H2.952a2 2 0 01-2-2v-16.64zM63.384 42.232c0-5.523-4.547-10-10.07-10-5.523 0-10.071 4.477-10.071 10v16.641a2 2 0 002 2h16.141a2 2 0 002-2V42.232z" fill="#373F48"/></g><defs><clipPath id="bclip0"><path fill="#fff" d="M.5 0h65v65H.5z"/></clipPath></defs></svg><svg fill="none" viewBox="0 0 69 68" id="advntg-price" xmlns="http://www.w3.org/2000/svg"><path d="M58.832 3.2a3.1 3.1 0 11-6.2 0 3.1 3.1 0 016.2 0zM65.942 12.44a4.362 4.362 0 11-8.724 0 4.362 4.362 0 018.724 0zM56.542 19.795a6.022 6.022 0 11-12.045 0 6.022 6.022 0 0112.045 0z" fill="#FF8E01"/><path fill-rule="evenodd" clip-rule="evenodd" d="M14.56 12.762a1 1 0 00-1.6.747l-.564 10.966c-.002.04-.002.079 0 .118 2.39-2.747 5.477-5.02 9.034-6.643l-6.87-5.188z" fill="#373F48"/><path fill-rule="evenodd" clip-rule="evenodd" d="M17.074 57.974v7.087a2 2 0 002 2h6.29a2 2 0 002-2v-2.336c-3.842-.952-7.338-2.592-10.29-4.75zM54.075 57.983v7.086a2 2 0 01-2 2h-6.29a2 2 0 01-2-2v-2.335c3.841-.953 7.337-2.592 10.29-4.751z" fill="#FF8E01"/><path fill-rule="evenodd" clip-rule="evenodd" d="M50.333 27.578a7.447 7.447 0 006.007-3.037c3.984 3.991 6.386 9.153 6.386 14.79 0 12.654-12.105 22.913-27.038 22.913-14.932 0-27.037-10.259-27.037-22.913 0-12.655 12.105-22.913 27.037-22.913 2.68 0 5.269.33 7.713.946a7.458 7.458 0 006.932 10.214zm-28.925 3.345a2.587 2.587 0 100-5.174 2.587 2.587 0 000 5.174z" fill="#373F48"/><path fill-rule="evenodd" clip-rule="evenodd" d="M9 31.31A1.99 1.99 0 007.929 31H2.874a2 2 0 00-2 2v11a2 2 0 002 2H7.93c.11 0 .22-.009.325-.026a19.689 19.689 0 01-1.067-6.396c0-2.915.642-5.703 1.813-8.267z" fill="#373F48"/><path d="M64.059 41.123l4.762 1.67-.287 1.734-5.046.096.571-3.5z" fill="#373F48"/></svg><svg fill="none" viewBox="0 0 16 15" id="arrow" xmlns="http://www.w3.org/2000/svg"><path fill-rule="evenodd" clip-rule="evenodd" d="M7.254.684l7.524 6 1.21 1-1.21 1-7.59 5.871-.538-1.802 5.26-4.07H.05v-2h12.092L6.716 2.487 7.254.684z" fill="#fff"/></svg><svg fill="none" viewBox="0 0 11 9" id="arrow-cart" xmlns="http://www.w3.org/2000/svg"><path fill-rule="evenodd" clip-rule="evenodd" d="M5.118.215l4.61 3.676.742.613-.742.613-4.65 3.597-.33-1.105 3.223-2.493H.704V3.891h7.409L4.788 1.319l.33-1.104z" fill="#FF8E01"/></svg><svg fill="none" viewBox="0 0 53 15" id="arrow-descr" xmlns="http://www.w3.org/2000/svg"><path fill-rule="evenodd" clip-rule="evenodd" d="M41.307.756l9.332 6 1.5 1-1.5 1-9.413 5.871-.668-1.803 6.524-4.068H.639v-2h46.73l-6.73-4.198.668-1.802z" fill="#FF8E01"/></svg><svg fill="none" viewBox="0 0 11 7" id="arrow-sort" xmlns="http://www.w3.org/2000/svg"><path fill-rule="evenodd" clip-rule="evenodd" d="M5.494 6.117a1 1 0 01-.707-.293l-4-4A1 1 0 012.201.41l3.293 3.292L8.787.41a1 1 0 011.414 1.414l-4 4a1 1 0 01-.707.293z" fill="#373F48"/></svg><svg fill="none" viewBox="0 0 21 22" id="cart" xmlns="http://www.w3.org/2000/svg"><path fill-rule="evenodd" clip-rule="evenodd" d="M9.93.173h1.529c2.633 0 4.334 1.841 4.334 4.695v2.086h5.1L20.2 20.126c-.052.982-.736 1.746-1.564 1.746H2.753c-.827 0-1.513-.765-1.565-1.748L.496 6.954h5.099V4.868C5.595 2.059 7.338.173 9.93.173zm4.588 4.695c0-2.124-1.18-3.34-3.059-3.34H9.931c-1.88 0-3.061 1.242-3.061 3.34v2.086h7.648V4.868zm4.409 15.182l.617-11.74h-17.7l.617 11.738c.016.29.181.468.292.468h15.883c.111 0 .276-.178.29-.466z" fill="#fff"/><path fill="#fff" d="M1.656 7.987h18.042v12.882H1.656z"/></svg><svg fill="none" viewBox="0 0 22 21" id="clock" xmlns="http://www.w3.org/2000/svg"><path d="M11.043.23C5.39.23.788 4.776.788 10.364c0 5.589 4.6 10.136 10.255 10.136 5.655 0 10.255-4.547 10.255-10.136 0-5.588-4.6-10.136-10.255-10.136zm0 19.004c-4.948 0-8.973-3.978-8.973-8.869 0-4.89 4.025-8.869 8.973-8.869s8.973 3.979 8.973 8.87c0 4.89-4.025 8.868-8.973 8.868z" fill="#FF8E01"/><path d="M10.568 5.098H9.337v6.336l3.873 3.828.87-.86-3.512-3.472V5.098z" fill="#FF8E01"/></svg><svg fill="none" viewBox="0 0 16 16" id="close" xmlns="http://www.w3.org/2000/svg"><path d="M15.215 2.017L13.447.255 7.715 5.97 1.982.255.215 2.017l5.732 5.715-5.732 5.716 1.767 1.762 5.733-5.715 5.732 5.715 1.768-1.762-5.733-5.716 5.733-5.715z" fill="#999"/></svg><svg fill="none" viewBox="0 0 19 21" id="download" xmlns="http://www.w3.org/2000/svg"><path d="M5.517 10.905l3.647 3.61a.447.447 0 00.635 0l3.647-3.61a.506.506 0 00.02-.69.447.447 0 00-.654-.021L9.945 13.03V.545a.476.476 0 00-.463-.488.476.476 0 00-.464.488v12.486l-2.867-2.837a.447.447 0 00-.655.021.506.506 0 00.02.69z" fill="#fff"/><path d="M16.184 3.682h-2.35a.476.476 0 00-.463.488c0 .27.207.488.463.488h2.35c.767 0 1.39.655 1.39 1.463v11.498c0 .808-.623 1.462-1.39 1.463H2.779c-.768-.001-1.39-.655-1.39-1.463V6.12c0-.808.622-1.462 1.39-1.463h2.35a.476.476 0 00.463-.488.476.476 0 00-.463-.488h-2.35C1.499 3.684.463 4.775.462 6.121v11.498c.001 1.346 1.038 2.437 2.317 2.439h13.405c1.28-.002 2.316-1.093 2.317-2.44V6.122c-.001-1.346-1.038-2.437-2.317-2.439z" fill="#fff"/></svg><svg fill="none" viewBox="0 0 23 24" id="download-catalogue" xmlns="http://www.w3.org/2000/svg"><path d="M6.576 12.985l4.538 4.102c.222.2.568.2.79 0l4.54-4.102a.54.54 0 00.024-.784.593.593 0 00-.815-.024l-3.567 3.224V1.211a.566.566 0 00-.577-.554.566.566 0 00-.576.555V15.4l-3.567-3.224a.593.593 0 00-.816.024.54.54 0 00.026.784z" fill="#FF8E01"/><path d="M19.85 4.776h-2.925a.566.566 0 00-.576.555c0 .306.258.554.576.554h2.924c.956.001 1.73.745 1.73 1.663v13.067c0 .918-.774 1.662-1.73 1.663H3.17c-.955-.001-1.729-.745-1.73-1.663V7.548c.001-.918.775-1.662 1.73-1.663h2.924a.566.566 0 00.577-.554.566.566 0 00-.577-.555H3.17C1.577 4.778.287 6.018.286 7.548v13.067c.001 1.53 1.291 2.77 2.883 2.772h16.68c1.592-.002 2.882-1.242 2.884-2.772V7.548c-.002-1.53-1.292-2.77-2.884-2.772z" fill="#FF8E01"/></svg><svg fill="none" viewBox="0 0 20 21" id="download-popular" xmlns="http://www.w3.org/2000/svg"><path d="M6.028 11.455l3.648 3.61a.447.447 0 00.635 0l3.647-3.61a.506.506 0 00.02-.69.447.447 0 00-.655-.02l-2.866 2.836V1.095a.476.476 0 00-.464-.487.476.476 0 00-.463.487v12.486l-2.867-2.837a.447.447 0 00-.655.021.506.506 0 00.02.69z" fill="#373F48"/><path d="M16.696 4.232h-2.35a.476.476 0 00-.463.488c0 .27.207.488.463.488h2.35c.767 0 1.39.655 1.39 1.463V18.17c0 .808-.623 1.462-1.39 1.463H3.29c-.768 0-1.39-.655-1.39-1.463V6.67c0-.808.622-1.462 1.39-1.463h2.35a.476.476 0 00.463-.488.476.476 0 00-.463-.488H3.29C2.01 4.234.975 5.325.974 6.672v11.497c.001 1.346 1.038 2.437 2.317 2.439h13.405c1.279-.002 2.315-1.093 2.317-2.44V6.672c-.002-1.346-1.038-2.437-2.317-2.439z" fill="#373F48"/></svg><svg fill="none" viewBox="0 0 23 23" id="language" xmlns="http://www.w3.org/2000/svg"><path d="M11.58.91C5.569.91.676 5.804.676 11.818c0 6.013 4.893 10.905 10.906 10.905 6.013 0 10.906-4.892 10.906-10.906C22.487 5.803 17.594.912 11.58.912zm7.722 5.321A20.51 20.51 0 0115.68 7.31a15.417 15.417 0 00-2.51-4.893 9.548 9.548 0 016.132 3.814zm-4.635 8.557a22.73 22.73 0 00-6.174 0 14.158 14.158 0 01-.002-5.934c1.017.14 2.044.236 3.09.236 1.046 0 2.072-.097 3.089-.236.418 1.957.417 3.98-.003 5.934zm-.353-7.267a21.34 21.34 0 01-5.468 0 14.06 14.06 0 012.735-4.887 14.054 14.054 0 012.733 4.887zM9.99 2.417A15.415 15.415 0 007.48 7.31 20.535 20.535 0 013.86 6.23a9.542 9.542 0 016.129-3.814zm-7.95 9.4c0-1.59.396-3.087 1.086-4.406 1.303.535 2.64.957 4.016 1.233A15.524 15.524 0 007.142 15a21.79 21.79 0 00-4.017 1.227 9.503 9.503 0 01-1.087-4.41zm1.82 5.585a20.532 20.532 0 013.621-1.079 15.418 15.418 0 002.51 4.893 9.542 9.542 0 01-6.13-3.814zm4.989-1.29a21.326 21.326 0 015.466 0 14.077 14.077 0 01-2.733 4.887 14.056 14.056 0 01-2.733-4.887zm4.322 5.104a15.416 15.416 0 002.51-4.893c1.238.243 2.447.614 3.622 1.079a9.548 9.548 0 01-6.132 3.814zm2.848-6.22c.44-2.094.44-4.258.002-6.353a21.844 21.844 0 004.017-1.234 9.492 9.492 0 010 8.815 21.987 21.987 0 00-4.019-1.227z" fill="#FF8E01"/></svg><svg fill="none" viewBox="0 0 18 23" id="location" xmlns="http://www.w3.org/2000/svg"><path d="M8.837 21.952h0a48.298 48.298 0 01-4.08-4.867c-.97-1.333-1.92-2.808-2.624-4.27C1.424 11.344.988 9.937.988 8.725c0-3.946 3.518-7.25 7.96-7.25 4.444 0 7.961 3.304 7.962 7.25 0 1.212-.436 2.619-1.145 4.09-.705 1.463-1.654 2.938-2.625 4.27a48.299 48.299 0 01-4.079 4.867h0a.157.157 0 01-.112.04.157.157 0 01-.112-.04z" stroke="#FF8E01" stroke-width="1.3"/><circle cx="9.012" cy="9.026" r="2.85" stroke="#FF8E01" stroke-width="1.3"/></svg><svg fill="none" viewBox="0 0 78 32" id="logo" xmlns="http://www.w3.org/2000/svg"><path d="M23.244 23.16h-8v8h8v-8zM34.284 23.307h-8v8h8v-8zM34.261 12.204h-8v8h8v-8zM34.381 1h-8v8h8V1z" fill="#FF8E01"/><path d="M38.248 12.309h2.032l.168.973h.056a3.603 3.603 0 011.154-.836 3.67 3.67 0 011.397-.33c1.737 0 2.48 1.221 2.48 3.169v4.827H43.04v-4.526c0-1.07-.295-1.371-.934-1.371-.64 0-.897.247-1.402.7v5.21H38.25V12.31zM46.782 19.207l1.107-1.513c.56.485 1.27.775 2.017.823.659 0 .934-.233.934-.617 0-.458-.77-.686-1.583-1.002-.934-.37-2.074-1-2.074-2.285 0-1.481 1.233-2.483 3.083-2.483a4.696 4.696 0 012.863.992l-1.12 1.454a3.095 3.095 0 00-1.654-.663c-.56 0-.84.192-.84.563 0 .457.728.644 1.554.914.995.37 2.102.914 2.102 2.345 0 1.43-1.149 2.55-3.32 2.55a5.207 5.207 0 01-3.07-1.078zM54.615 17.237v-3.022h-1.08v-1.829l1.22-.096.28-2.057h2.074v2.057h1.868v1.907h-1.868v2.994c0 .864.42 1.207 1.009 1.207.248-.014.493-.06.728-.137l.393 1.755a5.983 5.983 0 01-1.808.288c-2.004 0-2.816-1.239-2.816-3.067zM59.855 17.931c0-1.645 1.317-2.537 4.428-2.866-.056-.63-.393-1.001-1.205-1.001a4.44 4.44 0 00-2.088.686l-.869-1.605a6.735 6.735 0 013.433-1.028c2.06 0 3.223 1.124 3.223 3.565v4.43h-2.032l-.182-.782h-.056a3.44 3.44 0 01-2.284.974 2.347 2.347 0 01-.93-.163 2.307 2.307 0 01-.786-.515 2.247 2.247 0 01-.508-.78 2.21 2.21 0 01-.144-.915zm4.428-.137v-1.248c-1.556.206-2.06.645-2.06 1.193 0 .458.336.672.855.672.235-.007.465-.067.674-.174.209-.107.39-.258.53-.443zM68.697 9.154h2.424v6.117h.056l2.424-2.962h2.704l-2.802 3.223 3.013 4.571H73.81l-1.723-2.962-.934 1.056v1.906H68.73l-.033-10.949zM41.215 31.772h-2.97l.037-8.585h2.452l.2.754h.071a4.734 4.734 0 012.704-.947c2.303 0 3.737 1.564 3.737 3.964 0 2.688-1.976 4.224-4.04 4.224a3.53 3.53 0 01-2.233-.81l.042 1.4zm3.139-4.773c0-1.371-.495-2.016-1.56-2.016-.58.014-1.132.25-1.537.658v3.086c.416.302.921.463 1.439.457.93-.004 1.677-.612 1.677-2.185h-.02zM49.412 23.187h2.452l.2 1.371h.07c.293-.459.695-.84 1.173-1.11a3.417 3.417 0 012.732-.275l-.513 2.084a4.79 4.79 0 00-1.051-.123 2.37 2.37 0 00-1.25.401 2.296 2.296 0 00-.829.998v4.457h-2.994l.01-7.803zM56.516 27.095c0-2.592 2.265-4.114 4.718-4.114 2.452 0 4.703 1.508 4.703 4.114s-2.265 4.087-4.703 4.087c-2.439 0-4.718-1.509-4.718-4.087zm6.343 0c0-1.303-.51-2.126-1.626-2.126-1.116 0-1.639.823-1.639 2.126s.51 2.112 1.64 2.112 1.625-.823 1.625-2.112zM67.343 27.095a3.857 3.857 0 01.246-1.551c.188-.495.477-.949.847-1.333a4.017 4.017 0 011.313-.902 4.092 4.092 0 011.569-.328 3.384 3.384 0 012.335.809l.088-1.161-.002-.887h2.842l-.037 9.248h-2.452l-.22-.754h-.07a4.157 4.157 0 01-2.517.946c-2.406 0-3.942-1.55-3.942-4.087zm6.174 1.426V25.45a2.436 2.436 0 00-1.49-.457c-.826 0-1.588.631-1.588 2.071 0 1.44.608 2.126 1.64 2.126.278.016.555-.037.806-.153.252-.117.47-.294.632-.515zM10.915 1h-8v30.605h8V1z" fill="#fff"/><path d="M22.886.922H3.042v2.403h19.844V.922zM22.886 18.111H3.042v2.468h19.844V18.11z" fill="#fff"/><path d="M22.885.922h-4.688v19.657h4.688V.922z" fill="#fff"/></svg><svg fill="none" viewBox="0 0 26 26" id="logo-mobile" xmlns="http://www.w3.org/2000/svg"><path d="M16.291 18.53H9.935v6.517h6.356V18.53zM25.062 18.648h-6.356v6.519h6.356v-6.519zM25.044 9.601h-6.356v6.519h6.356V9.6zM25.14.473h-6.356v6.518h6.356V.473z" fill="#FF8E01"/><path d="M6.496.473H.14v24.936h6.356V.473z" fill="#fff"/><path d="M16.007.41H.24v1.958h15.766V.409zM16.007 14.415H.24v2.01h15.766v-2.01z" fill="#fff"/><path d="M16.006.41H12.28v16.015h3.725V.41z" fill="#fff"/></svg><svg fill="none" viewBox="0 0 12 4" id="minus" xmlns="http://www.w3.org/2000/svg"><path fill="#373F48" d="M.987.367h10.885v3.042H.987z"/></svg><svg fill="none" viewBox="0 0 19 19" id="phone" xmlns="http://www.w3.org/2000/svg"><g clip-path="url(#sclip0)"><path d="M13.4 18.28a4.536 4.536 0 01-.74-.05 5.49 5.49 0 01-.8-.17 8.04 8.04 0 01-.61-.19l-.66-.24-.53-.2a11.35 11.35 0 01-2.24-1.06 18.53 18.53 0 01-3.24-2.63 17.83 17.83 0 01-2.63-3.24 11 11 0 01-1-2.21c0-.08-.09-.25-.21-.55-.12-.3-.24-.54-.29-.66-.05-.12-.11-.35-.19-.62a5.38 5.38 0 01-.17-.79 6.3 6.3 0 010-.75 5.53 5.53 0 01.66-2.63 6.26 6.26 0 01.76-1.11 2.47 2.47 0 011-.74 5.5 5.5 0 011-.3A2.9 2.9 0 015.04.1c.171.073.327.178.46.31.09.097.174.2.25.31.16.233.303.477.43.73.07.13.19.34.33.61l.4.72.33.58.18.25c.125.174.235.358.33.55a1.7 1.7 0 01.18.76 1.56 1.56 0 01-.21.76 3.3 3.3 0 01-.39.51 7.6 7.6 0 01-.85.75 6.37 6.37 0 00-.55.46.66.66 0 00.11.13c.06.11.13.21.15.26a11.27 11.27 0 001.85 2.5c.74.725 1.578 1.344 2.49 1.84l.25.15.14.08c.166-.174.323-.358.47-.55.219-.303.467-.584.74-.84a2.43 2.43 0 01.52-.39 1.58 1.58 0 011.52 0c.187.097.367.207.54.33l.29.2c.14.09.33.2.54.31l.72.4.64.35c.242.12.476.258.7.41.114.076.221.163.32.26.133.132.236.293.3.47.072.188.106.389.1.59a4.392 4.392 0 01-.14 1c-.07.342-.17.677-.3 1a2.7 2.7 0 01-.73 1 6.661 6.661 0 01-1.11.75 5.57 5.57 0 01-2.64.63zM4.46 1a3.59 3.59 0 00-.81.12 3.76 3.76 0 00-.79.24 1.65 1.65 0 00-.6.47 5.65 5.65 0 00-.63.94 4.53 4.53 0 00-.59 2.15 4.078 4.078 0 000 .61c.035.223.085.444.15.66.06.24.12.43.16.55.04.12.13.34.24.64l.25.62c.26.7.596 1.37 1 2a16.669 16.669 0 002.45 3c.92.946 1.946 1.781 3.06 2.49.629.403 1.299.739 2 1l.57.2.64.24.55.17c.218.067.442.114.67.14a4.43 4.43 0 002.75-.55c.337-.172.652-.384.94-.63.198-.16.358-.36.47-.59.106-.255.19-.52.25-.79.062-.27.099-.544.11-.82a.668.668 0 000-.23.35.35 0 00-.08-.13 1.237 1.237 0 00-.18-.14 4.994 4.994 0 00-.61-.35l-.64-.35-.75-.41-.6-.34-.31-.22a3.224 3.224 0 00-.41-.25.57.57 0 00-.59 0c-.114.075-.22.158-.32.25a5.42 5.42 0 00-.63.72 7.3 7.3 0 01-.62.72 1.4 1.4 0 01-.29.24l-.18.11-.31-.08-.24-.1-.28-.16-.22-.14a12.152 12.152 0 01-2.72-2 12.08 12.08 0 01-2-2.71l-.13-.22c-.1-.17-.15-.26-.15-.3a1.48 1.48 0 01-.09-.23l-.11-.31.11-.23a1.5 1.5 0 01.25-.29 6 6 0 01.71-.61 6.32 6.32 0 00.72-.64 1.65 1.65 0 00.25-.32.59.59 0 00.08-.26.8.8 0 00-.08-.33 4.13 4.13 0 00-.25-.41l-.19-.23c-.13-.22-.25-.42-.37-.64-.12-.22-.26-.46-.4-.73l-.34-.61a5.27 5.27 0 00-.37-.64 1.151 1.151 0 00-.14-.17.33.33 0 00-.11-.12.57.57 0 00-.25 0z" fill="#FF8E01"/></g><defs><clipPath id="sclip0"><path fill="#fff" d="M.039 0h18.28v18.28H.039z"/></clipPath></defs></svg><svg fill="none" viewBox="0 0 13 12" id="plus" xmlns="http://www.w3.org/2000/svg"><path d="M7.368 5.132h4.776v1.704H7.368v4.944H5.64V6.836H.864V5.132H5.64V.164h1.728v4.968z" fill="#373F48"/></svg><svg fill="none" viewBox="0 0 24 24" id="refresh" xmlns="http://www.w3.org/2000/svg"><g clip-path="url(#uclip0)"><path d="M11.84 3.977V.84L7.658 5.022l4.182 4.182V6.068c3.45 0 6.272 2.823 6.272 6.273 0 1.045-.313 2.09-.731 2.927l1.568 1.568c.732-1.36 1.254-2.823 1.254-4.495 0-4.6-3.763-8.364-8.363-8.364zm0 14.636c-3.45 0-6.273-2.822-6.273-6.272 0-1.046.314-2.091.732-2.928L4.73 7.845c-.732 1.36-1.255 2.823-1.255 4.496 0 4.6 3.764 8.363 8.364 8.363v3.137l4.181-4.182-4.181-4.182v3.136z" fill="#FF8E01"/></g><defs><clipPath id="uclip0"><path fill="#fff" d="M.34.841h23v23h-23z"/></clipPath></defs></svg><svg fill="none" viewBox="0 0 21 23" id="shopping-cart" xmlns="http://www.w3.org/2000/svg"><path fill-rule="evenodd" clip-rule="evenodd" d="M9.848.77h1.52c2.616 0 4.308 1.844 4.308 4.701v2.09h5.07l-.689 13.191c-.052.984-.732 1.748-1.555 1.748H2.714c-.823 0-1.505-.766-1.557-1.75L.47 7.56h5.07V5.471C5.538 2.66 7.27.77 9.848.77zm4.56 6.79H6.806V5.471c0-2.1 1.175-3.344 3.043-3.344h1.52c1.867 0 3.04 1.217 3.04 3.344v2.09zm-8.87 1.358H1.81l.613 11.756c.016.29.18.468.29.468h15.79c.11 0 .273-.178.288-.466l.613-11.758H5.538z" fill="#FF8E01"/></svg></svg>