<svg width="387" height="387" viewBox="0 0 387 387" fill="none" xmlns="http://www.w3.org/2000/svg">
<path d="M129.5 257.5H1.49991L1.48758 193.5H129.488L129.5 257.5Z" fill="#373F48" stroke="#FF8E01"/>
<path d="M385.5 257.5H257.5L257.488 193.5H385.488L385.5 257.5Z" fill="#373F48" stroke="#FF8E01"/>
<path d="M129.5 193.5H1.49991L1.48758 129.5H129.488L129.5 193.5Z" fill="#373F48" stroke="#FF8E01"/>
<path d="M385.5 193.5H257.5L257.488 129.5H385.488L385.5 193.5Z" fill="#373F48" stroke="#FF8E01"/>
<path d="M193.5 257.513V129.513L257.5 129.5V257.5L193.5 257.513Z" fill="#373F48" stroke="#FF8E01"/>
<path d="M129.5 257.5V129.5L193.5 129.488V257.488L129.5 257.5Z" fill="#373F48" stroke="#FF8E01"/>
<path d="M321.499 129.5V1.49991L385.499 1.48758V129.488L321.499 129.5Z" fill="#373F48" stroke="#FF8E01"/>
<path d="M321.5 385.5V257.5L385.5 257.488V385.488L321.5 385.5Z" fill="#373F48" stroke="#FF8E01"/>
<path d="M257.5 129.498V1.49845L321.5 1.48612V129.486L257.5 129.498Z" fill="#373F48" stroke="#FF8E01"/>
<path d="M257.5 385.5V257.5L321.5 257.488V385.488L257.5 385.5Z" fill="#373F48" stroke="#FF8E01"/>
<path d="M257.513 65.5006H129.513L129.501 1.50061H257.501L257.513 65.5006Z" fill="#373F48" stroke="#FF8E01"/>
<path d="M257.5 321.5H129.5L129.488 257.5H257.488L257.5 321.5Z" fill="#373F48" stroke="#FF8E01"/>
<path d="M1.50212 129.51V1.51017L65.5021 1.49784V129.498L1.50212 129.51Z" fill="#373F48" stroke="#FF8E01"/>
<path d="M1.5 385.5V257.5L65.5 257.488V385.488L1.5 385.5Z" fill="#373F48" stroke="#FF8E01"/>
<path d="M257.514 129.501H129.514L129.501 65.5009H257.501L257.514 129.501Z" fill="#373F48" stroke="#FF8E01"/>
<path d="M257.5 385.5H129.5L129.488 321.5H257.488L257.5 385.5Z" fill="#373F48" stroke="#FF8E01"/>
<path d="M65.5014 129.501V1.50101L129.501 1.48868V129.489L65.5014 129.501Z" fill="#373F48" stroke="#FF8E01"/>
<path d="M65.5 385.5V257.5L129.5 257.488V385.488L65.5 385.5Z" fill="#373F48" stroke="#FF8E01"/>
</svg>
