<svg width="387" height="387" fill="none" xmlns="http://www.w3.org/2000/svg"><path d="M129.5 257.5H1.5l-.012-64h128l.012 64zm256 0h-128l-.012-64h128l.012 64zm-256-64H1.5l-.012-64h128l.012 64zm256 0h-128l-.012-64h128l.012 64z" stroke="#FF8E01"/><path d="M193.5 257.513v-128l64-.013v128l-64 .013zm-64-.013v-128l64-.012v128l-64 .012zm191.999-128V1.5l64-.012v128l-64 .012zm.001 256v-128l64-.012v128l-64 .012z" stroke="#FF8E01"/><path d="M257.5 129.498v-128l64-.012v128l-64 .012zm0 256.002v-128l64-.012v128l-64 .012z" stroke="#FF8E01"/><path d="M257.513 65.5h-128l-.012-64h128l.012 64zm-.013 256h-128l-.012-64h128l.012 64zM1.502 129.51v-128l64-.012v128l-64 .012zM1.5 385.5v-128l64-.012v128l-64 .012zm256.014-255.999h-128l-.013-64h128l.013 64zM257.5 385.5h-128l-.012-64h128l.012 64z" stroke="#FF8E01"/><path d="M65.501 129.501v-128l64-.012v128l-64 .012zM65.5 385.5v-128l64-.012v128l-64 .012z" stroke="#FF8E01"/></svg>