<svg width="387" height="387" fill="none" xmlns="http://www.w3.org/2000/svg"><path d="M129.5 257.5H1.5l-.012-64h128l.012 64zM385.5 257.5h-128l-.012-64h128l.012 64zM129.5 193.5H1.5l-.012-64h128l.012 64zM385.5 193.5h-128l-.012-64h128l.012 64z" stroke="#FF8E01"/><path d="M193.5 257.513v-128l64-.013v128l-64 .013zM129.5 257.5v-128l64-.012v128l-64 .012zM321.499 129.5V1.5l64-.012v128l-64 .012zM321.5 385.5v-128l64-.012v128l-64 .012z" stroke="#FF8E01"/><path d="M257.5 129.498v-128l64-.012v128l-64 .012zM257.5 385.5v-128l64-.012v128l-64 .012z" stroke="#FF8E01"/><path d="M257.513 65.5h-128l-.012-64h128l.012 64zM257.5 321.5h-128l-.012-64h128l.012 64zM1.502 129.51v-128l64-.012v128l-64 .012zM1.5 385.5v-128l64-.012v128l-64 .012zM257.514 129.501h-128l-.013-64h128l.013 64zM257.5 385.5h-128l-.012-64h128l.012 64z" stroke="#FF8E01"/><path d="M65.501 129.501v-128l64-.012v128l-64 .012zM65.5 385.5v-128l64-.012v128l-64 .012z" stroke="#FF8E01"/></svg>