<svg width="138" height="536" fill="none" xmlns="http://www.w3.org/2000/svg"><g filter="url(#filter0_d)"><path fill="#fff" d="M69.168.98l.172 34 64-.313-.173-34z"/><path transform="matrix(.00507 .99999 .99999 -.00488 69.17 .977)" stroke="#999" d="M.503.498h33v63h-33z"/></g><g filter="url(#filter1_d)"><path fill="#fff" d="M5.254 67.17l.172 34 64.71-.315-.173-34z"/><path transform="matrix(.00507 .99999 .99999 -.00488 5.256 67.168)" stroke="#999" d="M.503.498h33v63.71h-33z"/></g><g filter="url(#filter2_d)"><path fill="#fff" d="M5.7 330.695l.172 34 64.71-.316-.173-34z"/><path transform="matrix(.00507 .99999 .99999 -.00488 5.702 330.692)" stroke="#999" d="M.503.498h33v63.71h-33z"/></g><g filter="url(#filter3_d)"><path fill="#fff" d="M5.882 199.652l.172 34 64.71-.316-.173-34z"/><path transform="matrix(.00507 .99999 .99999 -.00488 5.884 199.65)" stroke="#999" d="M.503.498h33v63.71h-33z"/></g><g filter="url(#filter4_d)"><path fill="#fff" d="M6.475 527.806l33.038-.168-.316-64.709-33.038.168z"/><path transform="matrix(.99999 -.00507 -.00488 -.99999 6.473 526.803)" stroke="#999" d="M.498-.503h32.038v63.71H.498z"/></g><g filter="url(#filter5_d)"><path fill="#fff" d="M5.238 68.22l33.14-.169-.327-66.826-33.14.168z"/><path transform="matrix(.99999 -.00507 -.0049 -.99999 5.236 67.217)" stroke="#999" d="M.498-.503h32.14v65.827H.498z"/></g><g filter="url(#filter6_d)"><path fill="#fff" d="M5.684 331.743l33.14-.168-.327-66.826-33.14.168z"/><path transform="matrix(.99999 -.00507 -.0049 -.99999 5.682 330.741)" stroke="#999" d="M.498-.503h32.14v65.827H.498z"/></g><g filter="url(#filter7_d)"><path fill="#fff" d="M5.753 200.271l33.14-.168-.327-66.826-33.14.168z"/><path transform="matrix(.99999 -.00507 -.0049 -.99999 5.751 199.268)" stroke="#999" d="M.498-.503h32.14v65.827H.498z"/></g><g filter="url(#filter8_d)"><path fill="#fff" d="M6.2 463.795l33.139-.168-.327-66.826-33.14.168z"/><path transform="matrix(.99999 -.00507 -.0049 -.99999 6.197 462.792)" stroke="#999" d="M.498-.503h32.14v65.827H.498z"/></g><g filter="url(#filter9_d)"><path fill="#fff" d="M69.329 33.98l.172 34 64-.313-.173-34z"/><path transform="matrix(.00507 .99999 .99999 -.00488 69.331 33.977)" stroke="#999" d="M.503.498h33v63h-33z"/></g><g filter="url(#filter10_d)"><path fill="#fff" d="M5.415 100.171l.172 34 64.71-.316-.173-34z"/><path transform="matrix(.00507 .99999 .99999 -.00488 5.417 100.169)" stroke="#999" d="M.503.498h33v63.71h-33z"/></g><g filter="url(#filter11_d)"><path fill="#fff" d="M5.86 363.695l.173 34 64.71-.316-.173-34z"/><path transform="matrix(.00507 .99999 .99999 -.00488 5.863 363.693)" stroke="#999" d="M.503.498h33v63.71h-33z"/></g><g filter="url(#filter12_d)"><path fill="#fff" d="M6.043 232.653l.172 34 64.71-.316-.173-34z"/><path transform="matrix(.00507 .99999 .99999 -.00488 6.045 232.65)" stroke="#999" d="M.503.498h33v63.71h-33z"/></g><g filter="url(#filter13_d)"><path fill="#fff" d="M37.403 67.971l33.14-.168L70.216.977l-33.14.168z"/><path transform="matrix(.99999 -.00507 -.0049 -.99999 37.4 66.969)" stroke="#999" d="M.498-.503h32.14v65.827H.498z"/></g><g filter="url(#filter14_d)"><path fill="#fff" d="M37.85 331.495l33.139-.168-.327-66.826-33.14.168z"/><path transform="matrix(.99999 -.00507 -.0049 -.99999 37.847 330.493)" stroke="#999" d="M.498-.503h32.14v65.827H.498z"/></g><defs><filter id="filter0_d" x="65.168" y=".668" width="72.172" height="42.312" filterUnits="userSpaceOnUse" color-interpolation-filters="sRGB"><feFlood flood-opacity="0" result="BackgroundImageFix"/><feColorMatrix in="SourceAlpha" values="0 0 0 0 0 0 0 0 0 0 0 0 0 0 0 0 0 0 127 0"/><feOffset dy="4"/><feGaussianBlur stdDeviation="2"/><feColorMatrix values="0 0 0 0 0 0 0 0 0 0 0 0 0 0 0 0 0 0 0.25 0"/><feBlend in2="BackgroundImageFix" result="effect1_dropShadow"/><feBlend in="SourceGraphic" in2="effect1_dropShadow" result="shape"/></filter><filter id="filter1_d" x="1.254" y="66.855" width="72.881" height="42.315" filterUnits="userSpaceOnUse" color-interpolation-filters="sRGB"><feFlood flood-opacity="0" result="BackgroundImageFix"/><feColorMatrix in="SourceAlpha" values="0 0 0 0 0 0 0 0 0 0 0 0 0 0 0 0 0 0 127 0"/><feOffset dy="4"/><feGaussianBlur stdDeviation="2"/><feColorMatrix values="0 0 0 0 0 0 0 0 0 0 0 0 0 0 0 0 0 0 0.25 0"/><feBlend in2="BackgroundImageFix" result="effect1_dropShadow"/><feBlend in="SourceGraphic" in2="effect1_dropShadow" result="shape"/></filter><filter id="filter2_d" x="1.7" y="330.379" width="72.881" height="42.315" filterUnits="userSpaceOnUse" color-interpolation-filters="sRGB"><feFlood flood-opacity="0" result="BackgroundImageFix"/><feColorMatrix in="SourceAlpha" values="0 0 0 0 0 0 0 0 0 0 0 0 0 0 0 0 0 0 127 0"/><feOffset dy="4"/><feGaussianBlur stdDeviation="2"/><feColorMatrix values="0 0 0 0 0 0 0 0 0 0 0 0 0 0 0 0 0 0 0.25 0"/><feBlend in2="BackgroundImageFix" result="effect1_dropShadow"/><feBlend in="SourceGraphic" in2="effect1_dropShadow" result="shape"/></filter><filter id="filter3_d" x="1.882" y="199.336" width="72.881" height="42.315" filterUnits="userSpaceOnUse" color-interpolation-filters="sRGB"><feFlood flood-opacity="0" result="BackgroundImageFix"/><feColorMatrix in="SourceAlpha" values="0 0 0 0 0 0 0 0 0 0 0 0 0 0 0 0 0 0 127 0"/><feOffset dy="4"/><feGaussianBlur stdDeviation="2"/><feColorMatrix values="0 0 0 0 0 0 0 0 0 0 0 0 0 0 0 0 0 0 0.25 0"/><feBlend in2="BackgroundImageFix" result="effect1_dropShadow"/><feBlend in="SourceGraphic" in2="effect1_dropShadow" result="shape"/></filter><filter id="filter4_d" x="2.159" y="462.929" width="41.353" height="72.876" filterUnits="userSpaceOnUse" color-interpolation-filters="sRGB"><feFlood flood-opacity="0" result="BackgroundImageFix"/><feColorMatrix in="SourceAlpha" values="0 0 0 0 0 0 0 0 0 0 0 0 0 0 0 0 0 0 127 0"/><feOffset dy="4"/><feGaussianBlur stdDeviation="2"/><feColorMatrix values="0 0 0 0 0 0 0 0 0 0 0 0 0 0 0 0 0 0 0.25 0"/><feBlend in2="BackgroundImageFix" result="effect1_dropShadow"/><feBlend in="SourceGraphic" in2="effect1_dropShadow" result="shape"/></filter><filter id="filter5_d" x=".911" y="1.225" width="41.467" height="74.995" filterUnits="userSpaceOnUse" color-interpolation-filters="sRGB"><feFlood flood-opacity="0" result="BackgroundImageFix"/><feColorMatrix in="SourceAlpha" values="0 0 0 0 0 0 0 0 0 0 0 0 0 0 0 0 0 0 127 0"/><feOffset dy="4"/><feGaussianBlur stdDeviation="2"/><feColorMatrix values="0 0 0 0 0 0 0 0 0 0 0 0 0 0 0 0 0 0 0.25 0"/><feBlend in2="BackgroundImageFix" result="effect1_dropShadow"/><feBlend in="SourceGraphic" in2="effect1_dropShadow" result="shape"/></filter><filter id="filter6_d" x="1.357" y="264.749" width="41.467" height="74.995" filterUnits="userSpaceOnUse" color-interpolation-filters="sRGB"><feFlood flood-opacity="0" result="BackgroundImageFix"/><feColorMatrix in="SourceAlpha" values="0 0 0 0 0 0 0 0 0 0 0 0 0 0 0 0 0 0 127 0"/><feOffset dy="4"/><feGaussianBlur stdDeviation="2"/><feColorMatrix values="0 0 0 0 0 0 0 0 0 0 0 0 0 0 0 0 0 0 0.25 0"/><feBlend in2="BackgroundImageFix" result="effect1_dropShadow"/><feBlend in="SourceGraphic" in2="effect1_dropShadow" result="shape"/></filter><filter id="filter7_d" x="1.427" y="133.276" width="41.467" height="74.995" filterUnits="userSpaceOnUse" color-interpolation-filters="sRGB"><feFlood flood-opacity="0" result="BackgroundImageFix"/><feColorMatrix in="SourceAlpha" values="0 0 0 0 0 0 0 0 0 0 0 0 0 0 0 0 0 0 127 0"/><feOffset dy="4"/><feGaussianBlur stdDeviation="2"/><feColorMatrix values="0 0 0 0 0 0 0 0 0 0 0 0 0 0 0 0 0 0 0.25 0"/><feBlend in2="BackgroundImageFix" result="effect1_dropShadow"/><feBlend in="SourceGraphic" in2="effect1_dropShadow" result="shape"/></filter><filter id="filter8_d" x="1.873" y="396.8" width="41.467" height="74.995" filterUnits="userSpaceOnUse" color-interpolation-filters="sRGB"><feFlood flood-opacity="0" result="BackgroundImageFix"/><feColorMatrix in="SourceAlpha" values="0 0 0 0 0 0 0 0 0 0 0 0 0 0 0 0 0 0 127 0"/><feOffset dy="4"/><feGaussianBlur stdDeviation="2"/><feColorMatrix values="0 0 0 0 0 0 0 0 0 0 0 0 0 0 0 0 0 0 0.25 0"/><feBlend in2="BackgroundImageFix" result="effect1_dropShadow"/><feBlend in="SourceGraphic" in2="effect1_dropShadow" result="shape"/></filter><filter id="filter9_d" x="65.329" y="33.668" width="72.172" height="42.312" filterUnits="userSpaceOnUse" color-interpolation-filters="sRGB"><feFlood flood-opacity="0" result="BackgroundImageFix"/><feColorMatrix in="SourceAlpha" values="0 0 0 0 0 0 0 0 0 0 0 0 0 0 0 0 0 0 127 0"/><feOffset dy="4"/><feGaussianBlur stdDeviation="2"/><feColorMatrix values="0 0 0 0 0 0 0 0 0 0 0 0 0 0 0 0 0 0 0.25 0"/><feBlend in2="BackgroundImageFix" result="effect1_dropShadow"/><feBlend in="SourceGraphic" in2="effect1_dropShadow" result="shape"/></filter><filter id="filter10_d" x="1.415" y="99.856" width="72.881" height="42.315" filterUnits="userSpaceOnUse" color-interpolation-filters="sRGB"><feFlood flood-opacity="0" result="BackgroundImageFix"/><feColorMatrix in="SourceAlpha" values="0 0 0 0 0 0 0 0 0 0 0 0 0 0 0 0 0 0 127 0"/><feOffset dy="4"/><feGaussianBlur stdDeviation="2"/><feColorMatrix values="0 0 0 0 0 0 0 0 0 0 0 0 0 0 0 0 0 0 0.25 0"/><feBlend in2="BackgroundImageFix" result="effect1_dropShadow"/><feBlend in="SourceGraphic" in2="effect1_dropShadow" result="shape"/></filter><filter id="filter11_d" x="1.861" y="363.379" width="72.881" height="42.315" filterUnits="userSpaceOnUse" color-interpolation-filters="sRGB"><feFlood flood-opacity="0" result="BackgroundImageFix"/><feColorMatrix in="SourceAlpha" values="0 0 0 0 0 0 0 0 0 0 0 0 0 0 0 0 0 0 127 0"/><feOffset dy="4"/><feGaussianBlur stdDeviation="2"/><feColorMatrix values="0 0 0 0 0 0 0 0 0 0 0 0 0 0 0 0 0 0 0.25 0"/><feBlend in2="BackgroundImageFix" result="effect1_dropShadow"/><feBlend in="SourceGraphic" in2="effect1_dropShadow" result="shape"/></filter><filter id="filter12_d" x="2.043" y="232.337" width="72.881" height="42.315" filterUnits="userSpaceOnUse" color-interpolation-filters="sRGB"><feFlood flood-opacity="0" result="BackgroundImageFix"/><feColorMatrix in="SourceAlpha" values="0 0 0 0 0 0 0 0 0 0 0 0 0 0 0 0 0 0 127 0"/><feOffset dy="4"/><feGaussianBlur stdDeviation="2"/><feColorMatrix values="0 0 0 0 0 0 0 0 0 0 0 0 0 0 0 0 0 0 0.25 0"/><feBlend in2="BackgroundImageFix" result="effect1_dropShadow"/><feBlend in="SourceGraphic" in2="effect1_dropShadow" result="shape"/></filter><filter id="filter13_d" x="33.076" y=".977" width="41.467" height="74.995" filterUnits="userSpaceOnUse" color-interpolation-filters="sRGB"><feFlood flood-opacity="0" result="BackgroundImageFix"/><feColorMatrix in="SourceAlpha" values="0 0 0 0 0 0 0 0 0 0 0 0 0 0 0 0 0 0 127 0"/><feOffset dy="4"/><feGaussianBlur stdDeviation="2"/><feColorMatrix values="0 0 0 0 0 0 0 0 0 0 0 0 0 0 0 0 0 0 0.25 0"/><feBlend in2="BackgroundImageFix" result="effect1_dropShadow"/><feBlend in="SourceGraphic" in2="effect1_dropShadow" result="shape"/></filter><filter id="filter14_d" x="33.522" y="264.5" width="41.467" height="74.995" filterUnits="userSpaceOnUse" color-interpolation-filters="sRGB"><feFlood flood-opacity="0" result="BackgroundImageFix"/><feColorMatrix in="SourceAlpha" values="0 0 0 0 0 0 0 0 0 0 0 0 0 0 0 0 0 0 127 0"/><feOffset dy="4"/><feGaussianBlur stdDeviation="2"/><feColorMatrix values="0 0 0 0 0 0 0 0 0 0 0 0 0 0 0 0 0 0 0.25 0"/><feBlend in2="BackgroundImageFix" result="effect1_dropShadow"/><feBlend in="SourceGraphic" in2="effect1_dropShadow" result="shape"/></filter></defs></svg>