<svg width="472" height="138" fill="none" xmlns="http://www.w3.org/2000/svg"><g filter="url(#filter0_d)"><path fill="#fff" d="M467.016 64h-34l-.012-64h34z"/><path transform="matrix(-1 0 -.0002 -1 466.015 63)" stroke="#999" d="M-.5-.5h33v63h-33z"/></g><g filter="url(#filter1_d)"><path fill="#fff" d="M401.149 128.249h-34l-.012-64.71h34z"/><path transform="matrix(-1 0 -.0002 -1 400.149 127.249)" stroke="#999" d="M-.5-.5h33v63.71h-33z"/></g><g filter="url(#filter2_d)"><path fill="#fff" d="M137.627 129.14h-34l-.012-64.71h34z"/><path transform="matrix(-1 0 -.0002 -1 136.627 128.14)" stroke="#999" d="M-.5-.5h33v63.71h-33z"/></g><g filter="url(#filter3_d)"><path fill="#fff" d="M268.667 128.293h-34l-.012-64.71h34z"/><path transform="matrix(-1 0 -.0002 -1 267.666 127.293)" stroke="#999" d="M-.5-.5h33v63.71h-33z"/></g><g filter="url(#filter4_d)"><path fill="#fff" d="M400.101 128.27V95.13l66.827-.012v33.14z"/><path transform="matrix(0 -1 1 -.00018 401.101 128.27)" stroke="#999" d="M.5-.5h32.14v65.827H.5z"/></g><g filter="url(#filter5_d)"><path fill="#fff" d="M136.579 129.161v-33.14l66.827-.012v33.14z"/><path transform="rotate(-90 133.37 -4.209) skewX(.01)" stroke="#999" d="M.5-.5h32.14v65.827H.5z"/></g><g filter="url(#filter6_d)"><path fill="#fff" d="M268.048 128.425v-33.14l66.827-.012v33.14z"/><path transform="rotate(-90 198.736 -70.312) skewX(.01)" stroke="#999" d="M.5-.5h32.14v65.827H.5z"/></g><g filter="url(#filter7_d)"><path fill="#fff" d="M4.526 129.315v-33.14l66.827-.012v33.14z"/><path transform="rotate(-90 67.42 61.895) skewX(.01)" stroke="#999" d="M.5-.5h32.14v65.827H.5z"/></g><g filter="url(#filter8_d)"><path fill="#fff" d="M434.015 64.007h-34l-.012-64h34z"/><path transform="matrix(-1 0 -.0002 -1 433.015 63.007)" stroke="#999" d="M-.5-.5h33v63h-33z"/></g><g filter="url(#filter9_d)"><path fill="#fff" d="M368.149 128.256h-34l-.012-64.71h34z"/><path transform="matrix(-1 0 -.0002 -1 367.149 127.256)" stroke="#999" d="M-.5-.5h33v63.71h-33z"/></g><g filter="url(#filter10_d)"><path fill="#fff" d="M104.626 129.146h-34l-.012-64.71h34z"/><path transform="matrix(-1 0 -.0002 -1 103.626 128.146)" stroke="#999" d="M-.5-.5h33v63.71h-33z"/></g><g filter="url(#filter11_d)"><path fill="#fff" d="M235.666 128.299h-34l-.012-64.71h34z"/><path transform="matrix(-1 0 -.0002 -1 234.666 127.299)" stroke="#999" d="M-.5-.5h33v63.71h-33z"/></g><g filter="url(#filter12_d)"><path fill="#fff" d="M400.186 96.104v-33.14l66.827-.012v33.14z"/><path transform="matrix(0 -1 1 -.00018 401.186 96.104)" stroke="#999" d="M.5-.5h32.14v65.827H.5z"/></g><g filter="url(#filter13_d)"><path fill="#fff" d="M136.664 96.995v-33.14l66.827-.012v33.14z"/><path transform="rotate(-90 117.33 -20.335) skewX(.01)" stroke="#999" d="M.5-.5h32.14v65.827H.5z"/></g><defs><filter id="filter0_d" x="429.003" y="0" width="42.012" height="72" filterUnits="userSpaceOnUse" color-interpolation-filters="sRGB"><feFlood flood-opacity="0" result="BackgroundImageFix"/><feColorMatrix in="SourceAlpha" values="0 0 0 0 0 0 0 0 0 0 0 0 0 0 0 0 0 0 127 0"/><feOffset dy="4"/><feGaussianBlur stdDeviation="2"/><feColorMatrix values="0 0 0 0 0 0 0 0 0 0 0 0 0 0 0 0 0 0 0.25 0"/><feBlend in2="BackgroundImageFix" result="effect1_dropShadow"/><feBlend in="SourceGraphic" in2="effect1_dropShadow" result="shape"/></filter><filter id="filter1_d" x="363.137" y="63.54" width="42.012" height="72.71" filterUnits="userSpaceOnUse" color-interpolation-filters="sRGB"><feFlood flood-opacity="0" result="BackgroundImageFix"/><feColorMatrix in="SourceAlpha" values="0 0 0 0 0 0 0 0 0 0 0 0 0 0 0 0 0 0 127 0"/><feOffset dy="4"/><feGaussianBlur stdDeviation="2"/><feColorMatrix values="0 0 0 0 0 0 0 0 0 0 0 0 0 0 0 0 0 0 0.25 0"/><feBlend in2="BackgroundImageFix" result="effect1_dropShadow"/><feBlend in="SourceGraphic" in2="effect1_dropShadow" result="shape"/></filter><filter id="filter2_d" x="99.615" y="64.43" width="42.012" height="72.71" filterUnits="userSpaceOnUse" color-interpolation-filters="sRGB"><feFlood flood-opacity="0" result="BackgroundImageFix"/><feColorMatrix in="SourceAlpha" values="0 0 0 0 0 0 0 0 0 0 0 0 0 0 0 0 0 0 127 0"/><feOffset dy="4"/><feGaussianBlur stdDeviation="2"/><feColorMatrix values="0 0 0 0 0 0 0 0 0 0 0 0 0 0 0 0 0 0 0.25 0"/><feBlend in2="BackgroundImageFix" result="effect1_dropShadow"/><feBlend in="SourceGraphic" in2="effect1_dropShadow" result="shape"/></filter><filter id="filter3_d" x="230.654" y="63.583" width="42.012" height="72.71" filterUnits="userSpaceOnUse" color-interpolation-filters="sRGB"><feFlood flood-opacity="0" result="BackgroundImageFix"/><feColorMatrix in="SourceAlpha" values="0 0 0 0 0 0 0 0 0 0 0 0 0 0 0 0 0 0 127 0"/><feOffset dy="4"/><feGaussianBlur stdDeviation="2"/><feColorMatrix values="0 0 0 0 0 0 0 0 0 0 0 0 0 0 0 0 0 0 0.25 0"/><feBlend in2="BackgroundImageFix" result="effect1_dropShadow"/><feBlend in="SourceGraphic" in2="effect1_dropShadow" result="shape"/></filter><filter id="filter4_d" x="396.101" y="95.118" width="74.827" height="41.152" filterUnits="userSpaceOnUse" color-interpolation-filters="sRGB"><feFlood flood-opacity="0" result="BackgroundImageFix"/><feColorMatrix in="SourceAlpha" values="0 0 0 0 0 0 0 0 0 0 0 0 0 0 0 0 0 0 127 0"/><feOffset dy="4"/><feGaussianBlur stdDeviation="2"/><feColorMatrix values="0 0 0 0 0 0 0 0 0 0 0 0 0 0 0 0 0 0 0.25 0"/><feBlend in2="BackgroundImageFix" result="effect1_dropShadow"/><feBlend in="SourceGraphic" in2="effect1_dropShadow" result="shape"/></filter><filter id="filter5_d" x="132.579" y="96.008" width="74.827" height="41.152" filterUnits="userSpaceOnUse" color-interpolation-filters="sRGB"><feFlood flood-opacity="0" result="BackgroundImageFix"/><feColorMatrix in="SourceAlpha" values="0 0 0 0 0 0 0 0 0 0 0 0 0 0 0 0 0 0 127 0"/><feOffset dy="4"/><feGaussianBlur stdDeviation="2"/><feColorMatrix values="0 0 0 0 0 0 0 0 0 0 0 0 0 0 0 0 0 0 0.25 0"/><feBlend in2="BackgroundImageFix" result="effect1_dropShadow"/><feBlend in="SourceGraphic" in2="effect1_dropShadow" result="shape"/></filter><filter id="filter6_d" x="264.048" y="95.272" width="74.827" height="41.152" filterUnits="userSpaceOnUse" color-interpolation-filters="sRGB"><feFlood flood-opacity="0" result="BackgroundImageFix"/><feColorMatrix in="SourceAlpha" values="0 0 0 0 0 0 0 0 0 0 0 0 0 0 0 0 0 0 127 0"/><feOffset dy="4"/><feGaussianBlur stdDeviation="2"/><feColorMatrix values="0 0 0 0 0 0 0 0 0 0 0 0 0 0 0 0 0 0 0.25 0"/><feBlend in2="BackgroundImageFix" result="effect1_dropShadow"/><feBlend in="SourceGraphic" in2="effect1_dropShadow" result="shape"/></filter><filter id="filter7_d" x=".526" y="96.163" width="74.827" height="41.152" filterUnits="userSpaceOnUse" color-interpolation-filters="sRGB"><feFlood flood-opacity="0" result="BackgroundImageFix"/><feColorMatrix in="SourceAlpha" values="0 0 0 0 0 0 0 0 0 0 0 0 0 0 0 0 0 0 127 0"/><feOffset dy="4"/><feGaussianBlur stdDeviation="2"/><feColorMatrix values="0 0 0 0 0 0 0 0 0 0 0 0 0 0 0 0 0 0 0.25 0"/><feBlend in2="BackgroundImageFix" result="effect1_dropShadow"/><feBlend in="SourceGraphic" in2="effect1_dropShadow" result="shape"/></filter><filter id="filter8_d" x="396.003" y=".007" width="42.012" height="72" filterUnits="userSpaceOnUse" color-interpolation-filters="sRGB"><feFlood flood-opacity="0" result="BackgroundImageFix"/><feColorMatrix in="SourceAlpha" values="0 0 0 0 0 0 0 0 0 0 0 0 0 0 0 0 0 0 127 0"/><feOffset dy="4"/><feGaussianBlur stdDeviation="2"/><feColorMatrix values="0 0 0 0 0 0 0 0 0 0 0 0 0 0 0 0 0 0 0.25 0"/><feBlend in2="BackgroundImageFix" result="effect1_dropShadow"/><feBlend in="SourceGraphic" in2="effect1_dropShadow" result="shape"/></filter><filter id="filter9_d" x="330.136" y="63.546" width="42.012" height="72.71" filterUnits="userSpaceOnUse" color-interpolation-filters="sRGB"><feFlood flood-opacity="0" result="BackgroundImageFix"/><feColorMatrix in="SourceAlpha" values="0 0 0 0 0 0 0 0 0 0 0 0 0 0 0 0 0 0 127 0"/><feOffset dy="4"/><feGaussianBlur stdDeviation="2"/><feColorMatrix values="0 0 0 0 0 0 0 0 0 0 0 0 0 0 0 0 0 0 0.25 0"/><feBlend in2="BackgroundImageFix" result="effect1_dropShadow"/><feBlend in="SourceGraphic" in2="effect1_dropShadow" result="shape"/></filter><filter id="filter10_d" x="66.614" y="64.436" width="42.012" height="72.71" filterUnits="userSpaceOnUse" color-interpolation-filters="sRGB"><feFlood flood-opacity="0" result="BackgroundImageFix"/><feColorMatrix in="SourceAlpha" values="0 0 0 0 0 0 0 0 0 0 0 0 0 0 0 0 0 0 127 0"/><feOffset dy="4"/><feGaussianBlur stdDeviation="2"/><feColorMatrix values="0 0 0 0 0 0 0 0 0 0 0 0 0 0 0 0 0 0 0.25 0"/><feBlend in2="BackgroundImageFix" result="effect1_dropShadow"/><feBlend in="SourceGraphic" in2="effect1_dropShadow" result="shape"/></filter><filter id="filter11_d" x="197.654" y="63.59" width="42.012" height="72.71" filterUnits="userSpaceOnUse" color-interpolation-filters="sRGB"><feFlood flood-opacity="0" result="BackgroundImageFix"/><feColorMatrix in="SourceAlpha" values="0 0 0 0 0 0 0 0 0 0 0 0 0 0 0 0 0 0 127 0"/><feOffset dy="4"/><feGaussianBlur stdDeviation="2"/><feColorMatrix values="0 0 0 0 0 0 0 0 0 0 0 0 0 0 0 0 0 0 0.25 0"/><feBlend in2="BackgroundImageFix" result="effect1_dropShadow"/><feBlend in="SourceGraphic" in2="effect1_dropShadow" result="shape"/></filter><filter id="filter12_d" x="396.186" y="62.952" width="74.827" height="41.152" filterUnits="userSpaceOnUse" color-interpolation-filters="sRGB"><feFlood flood-opacity="0" result="BackgroundImageFix"/><feColorMatrix in="SourceAlpha" values="0 0 0 0 0 0 0 0 0 0 0 0 0 0 0 0 0 0 127 0"/><feOffset dy="4"/><feGaussianBlur stdDeviation="2"/><feColorMatrix values="0 0 0 0 0 0 0 0 0 0 0 0 0 0 0 0 0 0 0.25 0"/><feBlend in2="BackgroundImageFix" result="effect1_dropShadow"/><feBlend in="SourceGraphic" in2="effect1_dropShadow" result="shape"/></filter><filter id="filter13_d" x="132.664" y="63.843" width="74.827" height="41.152" filterUnits="userSpaceOnUse" color-interpolation-filters="sRGB"><feFlood flood-opacity="0" result="BackgroundImageFix"/><feColorMatrix in="SourceAlpha" values="0 0 0 0 0 0 0 0 0 0 0 0 0 0 0 0 0 0 127 0"/><feOffset dy="4"/><feGaussianBlur stdDeviation="2"/><feColorMatrix values="0 0 0 0 0 0 0 0 0 0 0 0 0 0 0 0 0 0 0.25 0"/><feBlend in2="BackgroundImageFix" result="effect1_dropShadow"/><feBlend in="SourceGraphic" in2="effect1_dropShadow" result="shape"/></filter></defs></svg>