<svg width="69" height="68" viewBox="0 0 69 68" fill="none" xmlns="http://www.w3.org/2000/svg">
<path d="M58.8323 3.2002C58.8323 4.91221 57.4444 6.30006 55.7324 6.30006C54.0204 6.30006 52.6326 4.91221 52.6326 3.2002C52.6326 1.4882 54.0204 0.100342 55.7324 0.100342C57.4444 0.100342 58.8323 1.4882 58.8323 3.2002Z" fill="#FF8E01"/>
<path d="M65.9423 12.4407C65.9423 14.8498 63.9893 16.8027 61.5802 16.8027C59.1711 16.8027 57.2181 14.8498 57.2181 12.4407C57.2181 10.0316 59.1711 8.07861 61.5802 8.07861C63.9893 8.07861 65.9423 10.0316 65.9423 12.4407Z" fill="#FF8E01"/>
<path d="M56.5419 19.7953C56.5419 23.1214 53.8456 25.8177 50.5195 25.8177C47.1935 25.8177 44.4972 23.1214 44.4972 19.7953C44.4972 16.4692 47.1935 13.7729 50.5195 13.7729C53.8456 13.7729 56.5419 16.4692 56.5419 19.7953Z" fill="#FF8E01"/>
<path fill-rule="evenodd" clip-rule="evenodd" d="M14.5606 12.7619C13.9205 12.2785 13.0004 12.7075 12.9592 13.5086L12.3961 24.4747C12.394 24.5147 12.3943 24.554 12.3967 24.5926C14.7862 21.8459 17.8731 19.5726 21.4305 17.9504L14.5606 12.7619Z" fill="#373F48"/>
<path fill-rule="evenodd" clip-rule="evenodd" d="M17.0741 57.9741V65.0608C17.0741 66.1653 17.9695 67.0608 19.0741 67.0608H25.3644C26.469 67.0608 27.3644 66.1653 27.3644 65.0608V62.7254C23.5223 61.7728 20.0263 60.1332 17.0741 57.9741Z" fill="#FF8E01"/>
<path fill-rule="evenodd" clip-rule="evenodd" d="M54.0745 57.9827V65.0693C54.0745 66.1739 53.179 67.0693 52.0745 67.0693H45.7841C44.6795 67.0693 43.7841 66.1739 43.7841 65.0693V62.734C47.6263 61.7814 51.1223 60.1418 54.0745 57.9827Z" fill="#FF8E01"/>
<path fill-rule="evenodd" clip-rule="evenodd" d="M50.3328 27.5776C52.7967 27.5776 54.9816 26.3828 56.3395 24.5409C60.3237 28.5321 62.7258 33.6938 62.7258 39.3309C62.7258 51.9854 50.6208 62.2439 35.6885 62.2439C20.7562 62.2439 8.65118 51.9854 8.65118 39.3309C8.65118 26.6764 20.7562 16.418 35.6885 16.418C38.3682 16.418 40.9568 16.7483 43.4008 17.3636C43.0615 18.2162 42.8749 19.1462 42.8749 20.1198C42.8749 24.2386 46.2139 27.5776 50.3328 27.5776ZM21.408 30.9228C22.8369 30.9228 23.9952 29.7645 23.9952 28.3357C23.9952 26.9068 22.8369 25.7485 21.408 25.7485C19.9791 25.7485 18.8208 26.9068 18.8208 28.3357C18.8208 29.7645 19.9791 30.9228 21.408 30.9228Z" fill="#373F48"/>
<path fill-rule="evenodd" clip-rule="evenodd" d="M9 31.3109C8.69029 31.114 8.32277 31 7.92861 31H2.87439C1.76982 31 0.87439 31.8954 0.87439 33V44C0.87439 45.1046 1.76982 46 2.87439 46H7.92861C8.03952 46 8.14832 45.991 8.25432 45.9736C7.55936 43.9436 7.18684 41.7974 7.18684 39.5775C7.18684 36.6628 7.82901 33.8753 9 31.3109Z" fill="#373F48"/>
<path d="M64.059 41.1235L68.8214 42.7925L68.5338 44.5267L63.4878 44.6229L64.059 41.1235Z" fill="#373F48"/>
</svg>
