<svg width="21" height="22" viewBox="0 0 21 22" fill="none" xmlns="http://www.w3.org/2000/svg">
<path fill-rule="evenodd" clip-rule="evenodd" d="M9.9305 0.172607H11.459C14.0915 0.172607 15.7934 2.01432 15.7934 4.86776V6.95373H20.8926L20.2004 20.1263C20.1481 21.1081 19.4636 21.8717 18.6362 21.8717H2.7533C1.92595 21.8717 1.2401 21.1068 1.18783 20.1236L0.495605 6.95373H5.59488V4.86776C5.59488 2.05908 7.33754 0.172607 9.9305 0.172607ZM14.5185 4.86776C14.5185 2.74396 13.3381 1.5288 11.459 1.5288H9.9305C8.05144 1.5288 6.86969 2.76972 6.86969 4.86776V6.95359H14.5185V4.86776ZM18.9269 20.0503L19.5439 8.3099H1.84436L2.46137 20.0476C2.47667 20.3378 2.64239 20.5155 2.7533 20.5155H18.6362C18.7471 20.5155 18.9116 20.3378 18.9269 20.0503Z" fill="white"/>
<rect x="1.65625" y="7.98682" width="18.0423" height="12.8818" fill="white"/>
</svg>
