<svg width="19" height="21" viewBox="0 0 19 21" fill="none" xmlns="http://www.w3.org/2000/svg">
<path d="M5.5166 10.9047L9.16399 14.5144C9.34248 14.6911 9.62053 14.6911 9.79902 14.5144L13.4464 10.9047C13.6329 10.7202 13.6419 10.4115 13.4667 10.2153C13.2913 10.019 12.998 10.0095 12.8116 10.1939L9.94492 13.0308V0.5453C9.94492 0.275864 9.73747 0.0574951 9.48151 0.0574951C9.22554 0.0574951 9.01809 0.275864 9.01809 0.5453V13.0308L6.15144 10.1941C5.96499 10.0095 5.67173 10.019 5.49632 10.2153C5.32109 10.4117 5.33014 10.7204 5.5166 10.9049V10.9047Z" fill="white"/>
<path d="M16.184 3.68201H13.8341C13.5782 3.68201 13.3707 3.90038 13.3707 4.16981C13.3707 4.43925 13.5782 4.65762 13.8341 4.65762H16.184C16.9515 4.65857 17.5733 5.3131 17.5742 6.12103V17.6186C17.5733 18.4265 16.9515 19.081 16.184 19.082H2.77899C2.01146 19.081 1.38965 18.4265 1.38874 17.6186V6.12103C1.38965 5.3131 2.01146 4.65857 2.77899 4.65762H5.12901C5.38479 4.65762 5.59242 4.43925 5.59242 4.16981C5.59242 3.90038 5.38479 3.68201 5.12901 3.68201H2.77899C1.49989 3.68353 0.463362 4.77461 0.461914 6.12103V17.6186C0.463362 18.965 1.49989 20.0561 2.77899 20.0576H16.184C17.4631 20.0561 18.4996 18.965 18.5011 17.6186V6.12103C18.4996 4.77461 17.4631 3.68353 16.184 3.68201Z" fill="white"/>
</svg>
