<svg width="29" height="29" viewBox="0 0 29 29" fill="none" xmlns="http://www.w3.org/2000/svg">
<path d="M28.834 22.7568C28.834 23.1184 28.7671 23.5905 28.6332 24.1731C28.4992 24.7557 28.3586 25.2144 28.2113 25.5492C27.93 26.2188 27.1131 26.9286 25.7604 27.6786C24.5015 28.3617 23.2559 28.7032 22.0238 28.7032C21.6622 28.7032 21.3106 28.6798 20.9691 28.6329C20.6276 28.586 20.2425 28.5023 19.814 28.3818C19.3854 28.2612 19.0673 28.1641 18.8597 28.0905C18.6521 28.0168 18.2805 27.8795 17.7448 27.6786C17.209 27.4778 16.8809 27.3572 16.7604 27.317C15.4479 26.8483 14.276 26.2925 13.2448 25.6496C11.5305 24.5916 9.75927 23.1485 7.93115 21.3204C6.10303 19.4923 4.65995 17.7211 3.60191 16.0068C2.95905 14.9755 2.40325 13.8036 1.9345 12.4911C1.89432 12.3706 1.77379 12.0425 1.57289 11.5068C1.372 10.9711 1.23472 10.5994 1.16106 10.3918C1.0874 10.1842 0.990304 9.86614 0.869768 9.43757C0.749233 9.009 0.665527 8.62395 0.618652 8.28244C0.571777 7.94092 0.54834 7.58936 0.54834 7.22775C0.54834 5.99561 0.889858 4.75007 1.57289 3.49114C2.32289 2.13846 3.03271 1.3215 3.70236 1.04025C4.03718 0.892927 4.49588 0.752302 5.07847 0.618373C5.66106 0.484445 6.13316 0.41748 6.49477 0.41748C6.68227 0.41748 6.82289 0.43757 6.91664 0.477748C7.15771 0.558105 7.51262 1.06703 7.98137 2.00453C8.12869 2.259 8.32959 2.62061 8.58405 3.08936C8.83852 3.55811 9.07289 3.98333 9.28718 4.36503C9.50146 4.74672 9.70905 5.10498 9.90994 5.4398C9.95012 5.49337 10.0673 5.66078 10.2615 5.94204C10.4557 6.22329 10.5997 6.46101 10.6934 6.6552C10.7872 6.8494 10.8341 7.04025 10.8341 7.22775C10.8341 7.49561 10.6432 7.83043 10.2615 8.23221C9.87981 8.634 9.46463 9.0023 9.01597 9.33712C8.56731 9.67195 8.15213 10.0269 7.77044 10.4019C7.38874 10.7769 7.19789 11.0849 7.19789 11.326C7.19789 11.4465 7.23137 11.5972 7.29834 11.778C7.3653 11.9588 7.42222 12.0961 7.4691 12.1898C7.51597 12.2836 7.60972 12.4443 7.75035 12.6719C7.89097 12.8996 7.96798 13.0269 7.98137 13.0536C8.99923 14.8885 10.1644 16.4621 11.4769 17.7746C12.7894 19.0871 14.3631 20.2523 16.1979 21.2702C16.2247 21.2836 16.3519 21.3606 16.5796 21.5012C16.8073 21.6418 16.968 21.7356 17.0617 21.7824C17.1555 21.8293 17.2928 21.8862 17.4736 21.9532C17.6544 22.0202 17.805 22.0536 17.9256 22.0536C18.1666 22.0536 18.4747 21.8628 18.8497 21.4811C19.2247 21.0994 19.5796 20.6842 19.9144 20.2356C20.2492 19.7869 20.6175 19.3717 21.0193 18.99C21.4211 18.6083 21.7559 18.4175 22.0238 18.4175C22.2113 18.4175 22.4021 18.4644 22.5963 18.5581C22.7905 18.6519 23.0282 18.7958 23.3095 18.99C23.5907 19.1842 23.7582 19.3014 23.8117 19.3416C24.1465 19.5425 24.5048 19.7501 24.8865 19.9644C25.2682 20.1786 25.6934 20.413 26.1622 20.6675C26.6309 20.9219 26.9925 21.1228 27.247 21.2702C28.1845 21.7389 28.6934 22.0938 28.7738 22.3349C28.814 22.4286 28.834 22.5693 28.834 22.7568Z" fill="white"/>
</svg>
