<svg width="76" height="51" viewBox="0 0 76 51" fill="none" xmlns="http://www.w3.org/2000/svg">
<path d="M7.42515 36.1611C5.50099 36.1611 3.65565 36.9085 2.29507 38.2389C0.934488 39.5692 0.170122 41.3736 0.170122 43.255C0.170122 45.1364 0.934488 46.9407 2.29507 48.2711C3.65565 49.6014 5.50099 50.3488 7.42515 50.3488C9.3493 50.3488 11.1946 49.6014 12.5552 48.2711C13.9158 46.9407 14.6802 45.1364 14.6802 43.255C14.6802 41.3736 13.9158 39.5692 12.5552 38.2389C11.1946 36.9085 9.3493 36.1611 7.42515 36.1611Z" fill="#FF8E01"/>
<path d="M42.2881 36.1484C40.8532 36.1484 39.4505 36.5645 38.2574 37.344C37.0643 38.1234 36.1344 39.2314 35.5853 40.5276C35.0362 41.8238 34.8925 43.2502 35.1725 44.6262C35.4524 46.0023 36.1434 47.2663 37.158 48.2584C38.1727 49.2505 39.4654 49.9261 40.8727 50.1998C42.2801 50.4735 43.7388 50.3331 45.0645 49.7961C46.3902 49.2592 47.5232 48.35 48.3204 47.1834C49.1176 46.0168 49.5431 44.6453 49.5431 43.2423C49.5431 41.3609 48.7788 39.5565 47.4182 38.2262C46.0576 36.8958 44.2123 36.1484 42.2881 36.1484Z" fill="#FF8E01"/>
<path d="M72.2191 11.9739H66.183V17.4787H61.0851V11.9739H55.0102C54.1544 11.9378 53.3186 12.2336 52.6846 12.7968C52.0506 13.3601 51.6696 14.1453 51.6245 14.9817V33.804C51.6696 34.6404 52.0506 35.4256 52.6846 35.9889C53.3186 36.5521 54.1544 36.8479 55.0102 36.8118H72.2191C73.075 36.8479 73.9107 36.5521 74.5447 35.9889C75.1788 35.4256 75.5597 34.6404 75.6048 33.804V15.0006C75.5647 14.1608 75.1858 13.3708 74.5513 12.8035C73.9167 12.2363 73.0781 11.938 72.2191 11.9739Z" fill="#FF8E01"/>
<path d="M28.1011 2.61976C27.6052 1.80266 26.8959 1.12934 26.0459 0.668903C25.1959 0.208469 24.2359 -0.0224815 23.2644 -0.000237528H11.6564C10.7502 -0.03881 9.86525 0.274729 9.19467 0.871928C8.5241 1.46913 8.12239 2.30148 8.07726 3.18726V19.9287H4.48844C3.35291 19.8798 2.24368 20.2721 1.40281 21.0199C0.561926 21.7676 0.0576475 22.8102 0 23.9202L0 37.9755C0.844035 36.7708 1.9803 35.7895 3.30716 35.1194C4.63401 34.4492 6.11006 34.1111 7.60327 34.1353C12.2755 34.1353 16.1158 37.3701 16.4351 41.4562H33.3634C33.673 37.3701 37.5133 34.1353 42.1952 34.1353C43.7571 34.1305 45.2959 34.5042 46.674 35.2231V35.1663L28.1011 2.61976ZM34.8725 26.3416H14.5584C14.3316 26.3519 14.1098 26.2742 13.9413 26.1254C13.7729 25.9766 13.6713 25.7687 13.6588 25.5471V5.6843C13.6713 5.46263 13.7729 5.25478 13.9413 5.10597C14.1098 4.95717 14.3316 4.87947 14.5584 4.88978H23.3999C23.5576 4.89214 23.7123 4.93214 23.8505 5.00633C23.9888 5.08051 24.1064 5.18662 24.1931 5.31542L35.656 25.1782C35.7195 25.3022 35.749 25.4401 35.7418 25.5785C35.7346 25.717 35.691 25.8513 35.615 25.9684C35.5391 26.0855 35.4335 26.1813 35.3085 26.2467C35.1834 26.3121 35.0433 26.3448 34.9015 26.3416H34.8725Z" fill="#373F48"/>
<path d="M50.3015 3.1875H46.674V35.1665V35.2422C47.8759 35.8388 48.9037 36.7233 49.6615 37.8133C50.4193 38.9032 50.8824 40.1631 51.0077 41.4753H68.2166V38.2689H50.3015V3.1875Z" fill="#373F48"/>
</svg>
