<svg width="66" height="65" viewBox="0 0 66 65" fill="none" xmlns="http://www.w3.org/2000/svg">
<g clip-path="url(#clip0)">
<path d="M34.9043 5.9668C34.9043 4.91497 34.0518 4.0625 33 4.0625C31.9482 4.0625 31.0957 4.91497 31.0957 5.9668V14.1255C31.0957 15.1773 31.9482 16.0298 33 16.0298C34.0518 16.0298 34.9043 15.1773 34.9043 14.1255V5.9668Z" fill="#FF8E01"/>
<path d="M23.4949 17.5119C23.8663 17.8834 24.3538 18.0698 24.8413 18.0698C25.3283 18.0698 25.8157 17.8839 26.1877 17.5119C26.931 16.7681 26.931 15.5625 26.1877 14.8187L22.1078 10.7393C21.3644 9.99543 20.1589 9.99543 19.415 10.7393C18.6712 11.4832 18.6712 12.6887 19.415 13.4326L23.4949 17.5119Z" fill="#FF8E01"/>
<path d="M41.1588 18.0693C41.6462 18.0693 42.1337 17.8834 42.5051 17.5114L46.585 13.4321C47.3284 12.6887 47.3284 11.4827 46.585 10.7393C45.8411 9.99543 44.6356 9.99543 43.8917 10.7393L39.8124 14.8187C39.0685 15.5625 39.0685 16.7681 39.8124 17.5114C40.1843 17.8834 40.6718 18.0693 41.1588 18.0693Z" fill="#FF8E01"/>
<path d="M18.5864 22.5551C18.5864 18.1311 14.9871 14.5317 10.5631 14.5317C6.13905 14.5317 2.53973 18.1311 2.53973 22.5551C2.53973 26.9796 6.13905 30.5789 10.5631 30.5789C14.9871 30.5789 18.5864 26.9796 18.5864 22.5551Z" fill="#FF8E01"/>
<path d="M63.4603 22.5551C63.4603 18.1311 59.861 14.5317 55.437 14.5317C51.013 14.5317 47.4136 18.1311 47.4136 22.5551C47.4136 26.9796 51.013 30.5789 55.437 30.5789C59.861 30.5789 63.4603 26.9796 63.4603 22.5551Z" fill="#FF8E01"/>
<path fill-rule="evenodd" clip-rule="evenodd" d="M30.8918 24.7315C30.8126 23.0579 28.834 22.2176 27.5747 23.3228L16.8781 32.711C19.8894 33.9486 22.091 36.82 22.3073 40.2876L22.3793 41.4431L30.6089 33.8261C31.042 33.4252 31.276 32.8534 31.2481 32.2638L30.8918 24.7315Z" fill="#373F48"/>
<path fill-rule="evenodd" clip-rule="evenodd" d="M33.4428 24.6555C33.522 22.9819 35.5006 22.1417 36.7599 23.2469L47.4565 32.6351C44.4452 33.8726 42.2436 36.7441 42.0273 40.2117L41.9553 41.3672L33.7257 33.7502C33.2926 33.3493 33.0586 32.7775 33.0865 32.1879L33.4428 24.6555Z" fill="#373F48"/>
<path d="M0.950195 42.3079C0.950195 36.785 5.49814 32.3079 11.021 32.3079C16.5438 32.3079 21.0918 36.785 21.0918 42.3079V58.9489C21.0918 60.0535 20.1963 60.9489 19.0918 60.9489H2.95019C1.84562 60.9489 0.950195 60.0535 0.950195 58.9489V42.3079Z" fill="#373F48"/>
<path d="M63.3844 42.2319C63.3844 36.7091 58.8365 32.2319 53.3136 32.2319C47.7908 32.2319 43.2428 36.7091 43.2428 42.2319V58.873C43.2428 59.9775 44.1383 60.873 45.2428 60.873H61.3844C62.489 60.873 63.3844 59.9775 63.3844 58.873V42.2319Z" fill="#373F48"/>
</g>
<defs>
<clipPath id="clip0">
<rect x="0.5" width="65" height="65" fill="white"/>
</clipPath>
</defs>
</svg>
