<svg width="20" height="21" viewBox="0 0 20 21" fill="none" xmlns="http://www.w3.org/2000/svg">
<path d="M6.02838 11.4548L9.67577 15.0646C9.85426 15.2412 10.1323 15.2412 10.3108 15.0646L13.9582 11.4548C14.1446 11.2704 14.1537 10.9617 13.9785 10.7654C13.8031 10.5692 13.5098 10.5596 13.3234 10.7441L10.4567 13.581V1.09547C10.4567 0.826035 10.2492 0.607666 9.99329 0.607666C9.73732 0.607666 9.52987 0.826035 9.52987 1.09547V13.581L6.66322 10.7443C6.47677 10.5596 6.18351 10.5692 6.0081 10.7654C5.83287 10.9619 5.84192 11.2706 6.02838 11.455V11.4548Z" fill="#373F48"/>
<path d="M16.6958 4.23218H14.346C14.09 4.23218 13.8826 4.45055 13.8826 4.71998C13.8826 4.98942 14.09 5.20779 14.346 5.20779H16.6958C17.4634 5.20874 18.0852 5.86328 18.0861 6.6712V18.1687C18.0852 18.9767 17.4634 19.6312 16.6958 19.6321H3.29083C2.5233 19.6312 1.90149 18.9767 1.90058 18.1687V6.6712C1.90149 5.86328 2.5233 5.20874 3.29083 5.20779H5.64085C5.89663 5.20779 6.10426 4.98942 6.10426 4.71998C6.10426 4.45055 5.89663 4.23218 5.64085 4.23218H3.29083C2.01173 4.2337 0.975203 5.32478 0.973755 6.6712V18.1687C0.975203 19.5151 2.01173 20.6062 3.29083 20.6077H16.6958C17.9749 20.6062 19.0114 19.5151 19.0129 18.1687V6.6712C19.0114 5.32478 17.9749 4.2337 16.6958 4.23218Z" fill="#373F48"/>
</svg>
