<svg width="22" height="21" viewBox="0 0 22 21" fill="none" xmlns="http://www.w3.org/2000/svg">
<path d="M11.0431 0.229492C5.38858 0.229492 0.788086 4.7765 0.788086 10.3653C0.788086 15.954 5.38858 20.501 11.0431 20.501C16.6976 20.501 21.2981 15.954 21.2981 10.3653C21.2981 4.7765 16.6976 0.229492 11.0431 0.229492ZM11.0431 19.2341C6.09522 19.2341 2.06997 15.2556 2.06997 10.3653C2.06997 5.47492 6.09522 1.49647 11.0431 1.49647C15.991 1.49647 20.0162 5.47492 20.0162 10.3653C20.0162 15.2556 15.991 19.2341 11.0431 19.2341Z" fill="#FF8E01"/>
<path d="M10.568 5.09766H9.33691V11.4335L13.2105 15.262L14.0809 14.4017L10.568 10.9296V5.09766Z" fill="#FF8E01"/>
</svg>
