<svg width="23" height="23" viewBox="0 0 23 23" fill="none" xmlns="http://www.w3.org/2000/svg">
<path d="M11.5809 0.910889C5.56784 0.910889 0.675293 5.80344 0.675293 11.8165C0.675293 17.8296 5.56784 22.7222 11.5809 22.7222C17.594 22.7222 22.4866 17.8296 22.4866 11.8165C22.4866 5.80344 17.594 0.910889 11.5809 0.910889ZM19.3021 6.23148C18.1271 6.6977 16.9193 7.06713 15.6801 7.30978C15.1539 5.57714 14.3183 3.91812 13.1704 2.41723C15.6842 2.84255 17.8626 4.24802 19.3021 6.23148ZM14.6672 14.7883C12.6197 14.5075 10.5408 14.5075 8.49328 14.7883C8.07341 12.8335 8.07205 10.8105 8.49055 8.85429C9.50751 8.99334 10.5354 9.09013 11.5809 9.09013C12.6265 9.09013 13.653 8.99334 14.67 8.85429C15.0885 10.8105 15.0871 12.8335 14.6672 14.7883ZM14.3142 7.52108C12.4997 7.75555 10.6608 7.75555 8.84635 7.52108C9.40527 5.76799 10.3186 4.10624 11.5809 2.63398C12.8433 4.10624 13.7553 5.76799 14.3142 7.52108ZM9.98872 2.41723C8.8409 3.91812 8.00662 5.57714 7.48042 7.30978C6.24263 7.06713 5.03483 6.6977 3.85974 6.23148C5.29793 4.24802 7.47633 2.84255 9.98872 2.41723ZM2.0385 11.8165C2.0385 10.227 2.43519 8.73024 3.12497 7.41066C4.4282 7.9464 5.76551 8.36763 7.14098 8.64436C6.70339 10.7396 6.70339 12.903 7.14234 14.9996C5.76823 15.2736 4.42547 15.6921 3.12497 16.2265C2.43519 14.9042 2.0385 13.4074 2.0385 11.8165ZM3.85974 17.4016C5.03483 16.9354 6.24263 16.5659 7.48042 16.3233C8.00662 18.0559 8.84226 19.715 9.99008 21.2158C7.47633 20.7905 5.29793 19.3851 3.85974 17.4016ZM8.84771 16.112C10.6608 15.8775 12.4997 15.8775 14.3142 16.112C13.7553 17.8651 12.8419 19.5268 11.5809 20.9991C10.3186 19.5268 9.40663 17.8651 8.84771 16.112ZM13.1704 21.2158C14.3183 19.715 15.1539 18.0559 15.6801 16.3233C16.9179 16.5659 18.1271 16.9367 19.3021 17.4016C17.8626 19.3851 15.6842 20.7905 13.1704 21.2158ZM16.0182 14.9969C16.4571 12.9017 16.4585 10.7382 16.0195 8.64299C17.395 8.36626 18.7337 7.9464 20.0369 7.40929C20.7267 8.73024 21.1234 10.227 21.1234 11.8165C21.1234 13.4074 20.7267 14.9042 20.0369 16.2238C18.7364 15.6908 17.3937 15.2723 16.0182 14.9969Z" fill="#FF8E01"/>
</svg>
