<svg width="21" height="23" viewBox="0 0 21 23" fill="none" xmlns="http://www.w3.org/2000/svg">
<path fill-rule="evenodd" clip-rule="evenodd" d="M9.8481 0.769287H11.3675C13.9844 0.769287 15.6762 2.61373 15.6762 5.47139V7.5603H20.7452L20.0571 20.7523C20.0051 21.7357 19.3246 22.5003 18.5021 22.5003H2.71353C1.89109 22.5003 1.20931 21.7343 1.15735 20.7496L0.469238 7.5603H5.53821V5.47139C5.53821 2.65855 7.27053 0.769287 9.8481 0.769287ZM14.4089 7.5603H6.80545V5.47139C6.80545 3.37025 7.98019 2.12749 9.8481 2.12749H11.3675C13.2354 2.12749 14.4089 3.34444 14.4089 5.47139V7.5603ZM5.53821 8.91849H1.80998L2.42333 20.6736C2.43854 20.9642 2.60328 21.1421 2.71353 21.1421H18.5021C18.6124 21.1421 18.7759 20.9642 18.7911 20.6763L19.4044 8.91849H15.6762V8.91852H5.53821V8.91849Z" fill="#FF8E01"/>
</svg>
