<svg width="78" height="32" viewBox="0 0 78 32" fill="none" xmlns="http://www.w3.org/2000/svg">
<path d="M23.2441 23.1606H15.2441V31.1606H23.2441V23.1606Z" fill="#FF8E01"/>
<path d="M34.2837 23.307H26.2837V31.307H34.2837V23.307Z" fill="#FF8E01"/>
<path d="M34.2612 12.2035H26.2612V20.2035H34.2612V12.2035Z" fill="#FF8E01"/>
<path d="M34.3813 1H26.3813V9H34.3813V1Z" fill="#FF8E01"/>
<path d="M38.2485 12.3086H40.2803L40.4484 13.2823H40.5045C40.828 12.9306 41.2204 12.6461 41.6585 12.4458C42.0966 12.2456 42.5714 12.1336 43.0546 12.1166C44.7921 12.1166 45.5348 13.3371 45.5348 15.2846V20.112H43.0406V15.5863C43.0406 14.5166 42.7464 14.2149 42.1065 14.2149C41.4666 14.2149 41.2097 14.4617 40.7053 14.9143V20.1257H38.2485V12.3086Z" fill="white"/>
<path d="M46.7817 19.2069L47.8887 17.6938C48.4495 18.1794 49.1592 18.4689 49.9064 18.5167C50.565 18.5167 50.8405 18.2835 50.8405 17.8995C50.8405 17.4424 50.0699 17.2138 49.2572 16.8984C48.3231 16.5281 47.1834 15.8972 47.1834 14.6127C47.1834 13.1315 48.4165 12.1304 50.266 12.1304C51.3072 12.1368 52.3158 12.4862 53.1292 13.1224L52.0082 14.5761C51.5367 14.199 50.961 13.9682 50.3548 13.9132C49.7943 13.9132 49.5141 14.1052 49.5141 14.4755C49.5141 14.9327 50.2427 15.1201 51.0694 15.3898C52.0643 15.7601 53.1712 16.3041 53.1712 17.7349C53.1712 19.1658 52.0222 20.2858 49.8504 20.2858C48.7349 20.2618 47.6578 19.8831 46.7817 19.2069Z" fill="white"/>
<path d="M54.6146 17.2366V14.2149H53.5356V12.3863L54.7547 12.2903L55.0349 10.2332H57.1087V12.2903H58.977V14.1966H57.1087V17.1909C57.1087 18.0549 57.5291 18.3977 58.1176 18.3977C58.3656 18.3838 58.6106 18.3377 58.8462 18.2606L59.2385 20.016C58.6551 20.204 58.0452 20.3012 57.431 20.304C55.4273 20.304 54.6146 19.0652 54.6146 17.2366Z" fill="white"/>
<path d="M59.8548 17.9314C59.8548 16.2857 61.172 15.3943 64.2826 15.0651C64.2266 14.4343 63.8903 14.064 63.0776 14.064C62.3333 14.1147 61.6146 14.3507 60.9898 14.7497L60.1211 13.1451C61.147 12.4999 62.3348 12.144 63.554 12.1166C65.6137 12.1166 66.7767 13.2411 66.7767 15.6823V20.112H64.745L64.5628 19.3303H64.5068C63.8985 19.9256 63.0825 20.2735 62.2228 20.304C61.9045 20.3133 61.5877 20.2579 61.2923 20.1412C60.997 20.0245 60.7296 19.8491 60.5071 19.6262C60.2845 19.4032 60.1116 19.1374 59.9994 18.8457C59.8871 18.554 59.8379 18.2427 59.8548 17.9314ZM64.2826 17.7943V16.5463C62.7273 16.752 62.2228 17.1909 62.2228 17.7394C62.2228 18.1966 62.5591 18.4114 63.0776 18.4114C63.3129 18.4036 63.5433 18.3441 63.7519 18.2373C63.9605 18.1304 64.1419 17.979 64.2826 17.7943Z" fill="white"/>
<path d="M68.6968 9.15442H71.1209V15.271H71.1769L73.601 12.3087H76.3053L73.5029 15.5316L76.5155 20.103H73.8111L72.0877 17.1407L71.1535 18.1967V20.103H68.7295L68.6968 9.15442Z" fill="white"/>
<path d="M41.2152 31.7716H38.2446L38.282 23.1865H40.7341L40.9349 23.9408H41.005C41.7825 23.3552 42.7287 23.0241 43.7093 22.9945C46.0119 22.9945 47.4458 24.5579 47.4458 26.9579C47.4458 29.6459 45.4701 31.1819 43.4057 31.1819C42.5875 31.1771 41.7972 30.8907 41.1731 30.3728L41.2152 31.7716ZM44.3539 26.9991C44.3539 25.6276 43.8588 24.9831 42.7939 24.9831C42.2134 24.9972 41.6617 25.2336 41.2572 25.6414V28.7271C41.6728 29.0293 42.1781 29.1898 42.6958 29.1842C43.6252 29.1796 44.3725 28.5716 44.3725 26.9991H44.3539Z" fill="white"/>
<path d="M49.4117 23.1866H51.8638L52.0646 24.558H52.1347C52.4266 24.0992 52.8294 23.7179 53.3075 23.4476C53.7857 23.1773 54.3245 23.0264 54.8764 23.0083C55.2711 22.9923 55.6654 23.0481 56.0393 23.1729L55.5256 25.2574C55.1811 25.1776 54.8286 25.1362 54.4747 25.134C54.0278 25.148 53.5943 25.2872 53.2259 25.5352C52.8575 25.7831 52.5695 26.1294 52.3962 26.5329V30.99H49.4023L49.4117 23.1866Z" fill="white"/>
<path d="M56.5161 27.0951C56.5161 24.5031 58.7814 22.9808 61.2335 22.9808C63.6856 22.9808 65.9368 24.4894 65.9368 27.0951C65.9368 29.7008 63.6716 31.182 61.2335 31.182C58.7954 31.182 56.5161 29.6734 56.5161 27.0951ZM62.8589 27.0951C62.8589 25.7923 62.3498 24.9694 61.2335 24.9694C60.1172 24.9694 59.5941 25.7923 59.5941 27.0951C59.5941 28.398 60.1032 29.2071 61.2335 29.2071C62.3638 29.2071 62.8589 28.3843 62.8589 27.0951Z" fill="white"/>
<path d="M67.3427 27.0951C67.3176 26.5671 67.4015 26.0396 67.5894 25.544C67.7774 25.0485 68.0655 24.5951 68.4365 24.211C68.8076 23.8269 69.2539 23.52 69.7489 23.3087C70.244 23.0973 70.7774 22.9858 71.3175 22.9808C72.1731 22.9475 73.0091 23.2372 73.6528 23.79L73.7415 22.6288L73.7389 21.7424L76.5808 21.7423L76.5439 30.99H74.0918L73.8723 30.2357H73.8023C73.0959 30.8196 72.2089 31.153 71.2848 31.182C68.8794 31.182 67.3427 29.6323 67.3427 27.0951ZM73.5173 28.5214V25.4494C73.0866 25.1388 72.5622 24.9779 72.0274 24.9923C71.2007 24.9923 70.4394 25.6231 70.4394 27.0631C70.4394 28.5031 71.0466 29.1888 72.0788 29.1888C72.3566 29.2051 72.6341 29.1524 72.8855 29.0358C73.137 28.9191 73.3543 28.7422 73.5173 28.5214Z" fill="white"/>
<path d="M10.9155 0.999878H2.91553V31.6046H10.9155V0.999878Z" fill="white"/>
<path d="M22.8859 0.921631H3.04248V3.3255H22.8859V0.921631Z" fill="white"/>
<path d="M22.8859 18.1111H3.04248V20.5789H22.8859V18.1111Z" fill="white"/>
<path d="M22.8854 0.921631H18.1968V20.5788H22.8854V0.921631Z" fill="white"/>
</svg>
