<svg width="19" height="19" viewBox="0 0 19 19" fill="none" xmlns="http://www.w3.org/2000/svg">
<g clip-path="url(#clip0)">
<path d="M13.3993 18.28C13.1517 18.2836 12.9042 18.2668 12.6593 18.23C12.3888 18.1933 12.1214 18.1365 11.8593 18.06C11.5993 17.99 11.3893 17.92 11.2493 17.87L10.5893 17.63L10.0593 17.43C9.27618 17.1595 8.52504 16.804 7.8193 16.37C6.64371 15.6181 5.55682 14.7359 4.5793 13.74C3.57883 12.7667 2.69612 11.6792 1.9493 10.5C1.53551 9.80243 1.20014 9.06126 0.949296 8.28998C0.949296 8.20998 0.859296 8.03998 0.739296 7.73998C0.619296 7.43998 0.499296 7.19998 0.449296 7.07998C0.399296 6.95998 0.339296 6.72998 0.259296 6.45998C0.182905 6.20128 0.126078 5.93721 0.0892956 5.66998C0.0744015 5.4202 0.0744015 5.16976 0.0892956 4.91998C0.087626 4.00213 0.314444 3.09829 0.749296 2.28998C0.962022 1.89376 1.21683 1.52161 1.5093 1.17998C1.77404 0.852039 2.11829 0.597292 2.5093 0.439982C2.83236 0.3085 3.1672 0.208047 3.5093 0.139982C4.00651 -0.0101189 4.53492 -0.0239334 5.0393 0.0999825C5.21127 0.172527 5.3675 0.277814 5.4993 0.409982C5.59043 0.506772 5.67401 0.61041 5.7493 0.719983C5.90924 0.953142 6.05291 1.19705 6.1793 1.44998C6.2493 1.57998 6.3693 1.78998 6.5093 2.05998L6.9093 2.77998L7.2393 3.35998L7.4193 3.60998C7.5446 3.78369 7.65499 3.96768 7.7493 4.15998C7.86747 4.39591 7.92909 4.65611 7.9293 4.91998C7.92553 5.18712 7.85322 5.44881 7.7193 5.67998C7.60618 5.86225 7.47556 6.03306 7.3293 6.18998C7.06503 6.46079 6.7809 6.71149 6.4793 6.93998C6.28747 7.08287 6.10385 7.23644 5.9293 7.39998C5.96019 7.44788 5.99717 7.49158 6.0393 7.52998C6.0993 7.63998 6.1693 7.73998 6.1893 7.78998C6.68746 8.70481 7.31006 9.54615 8.0393 10.29C8.78053 11.0151 9.61846 11.6343 10.5293 12.13L10.7793 12.28L10.9193 12.36C11.0861 12.1856 11.2431 12.002 11.3893 11.81C11.6089 11.5073 11.8567 11.226 12.1293 10.97C12.2844 10.8173 12.4593 10.6861 12.6493 10.58C12.8822 10.4522 13.1436 10.3852 13.4093 10.3852C13.675 10.3852 13.9364 10.4522 14.1693 10.58C14.357 10.6768 14.5375 10.7871 14.7093 10.91L14.9993 11.11C15.1393 11.2 15.3293 11.31 15.5393 11.42L16.2593 11.82L16.8993 12.17C17.1417 12.2905 17.3756 12.4275 17.5993 12.58C17.7141 12.6561 17.8213 12.7432 17.9193 12.84C18.0534 12.9721 18.156 13.1327 18.2193 13.31C18.2922 13.4979 18.3262 13.6986 18.3193 13.9C18.3112 14.2376 18.2643 14.5731 18.1793 14.9C18.1104 15.2419 18.01 15.5766 17.8793 15.9C17.7167 16.2854 17.4668 16.6277 17.1493 16.9C16.8054 17.1867 16.4336 17.4379 16.0393 17.65C15.2247 18.0745 14.3178 18.2909 13.3993 18.28ZM4.4593 0.999982C4.1856 1.00896 3.91384 1.04922 3.6493 1.11998C3.37795 1.17074 3.11302 1.25122 2.8593 1.35998C2.62536 1.46768 2.41988 1.62864 2.2593 1.82998C2.01837 2.12144 1.80731 2.43636 1.6293 2.76998C1.25659 3.42631 1.05378 4.16536 1.0393 4.91998C1.02407 5.12303 1.02407 5.32693 1.0393 5.52998C1.07451 5.75308 1.12462 5.97358 1.1893 6.18998C1.2493 6.42998 1.3093 6.61998 1.3493 6.73998C1.3893 6.85998 1.4793 7.07998 1.5893 7.37998L1.8393 7.99998C2.10049 8.70034 2.43572 9.37081 2.8393 9.99998C3.53662 11.0918 4.35883 12.0986 5.2893 13C6.20921 13.9459 7.23612 14.7815 8.3493 15.49C8.97854 15.8934 9.649 16.2286 10.3493 16.49L10.9193 16.69L11.5593 16.93L12.1093 17.1C12.3278 17.1675 12.5521 17.2144 12.7793 17.24C13.7313 17.3593 14.6964 17.1663 15.5293 16.69C15.8665 16.518 16.1821 16.3065 16.4693 16.06C16.6679 15.9008 16.8285 15.6992 16.9393 15.47C17.046 15.2146 17.1296 14.9502 17.1893 14.68C17.2521 14.4108 17.2889 14.1362 17.2993 13.86C17.3126 13.7839 17.3126 13.7061 17.2993 13.63C17.2825 13.5813 17.2552 13.5369 17.2193 13.5C17.1637 13.4479 17.1035 13.401 17.0393 13.36C16.8444 13.2291 16.6406 13.1122 16.4293 13.01L15.7893 12.66L15.0393 12.25L14.4393 11.91L14.1293 11.69C13.999 11.5966 13.862 11.513 13.7193 11.44C13.6303 11.3862 13.5283 11.3577 13.4243 11.3577C13.3203 11.3577 13.2183 11.3862 13.1293 11.44C13.0163 11.5148 12.9093 11.5984 12.8093 11.69C12.5785 11.9109 12.3677 12.1519 12.1793 12.41C11.9885 12.6632 11.7814 12.9037 11.5593 13.13C11.4739 13.2227 11.3763 13.3034 11.2693 13.37L11.0893 13.48L10.7793 13.4L10.5393 13.3L10.2593 13.14L10.0393 13C9.04397 12.4631 8.12847 11.79 7.3193 11C6.52935 10.1945 5.85614 9.28228 5.3193 8.28998L5.1893 8.06998C5.0893 7.89998 5.0393 7.80998 5.0393 7.76998C5.00294 7.69596 4.97284 7.61902 4.9493 7.53998L4.8393 7.22998L4.9493 6.99998C5.0199 6.89303 5.10392 6.79557 5.1993 6.70998C5.41972 6.48847 5.6571 6.28452 5.9093 6.09998C6.16523 5.90528 6.40593 5.69132 6.6293 5.45998C6.72549 5.36402 6.80946 5.25654 6.8793 5.13998C6.92585 5.06073 6.95325 4.9717 6.9593 4.87998C6.95655 4.76553 6.92927 4.65299 6.8793 4.54998C6.80399 4.40858 6.72051 4.27168 6.6293 4.13998L6.4393 3.90998C6.3093 3.68998 6.1893 3.48998 6.0693 3.26998C5.9493 3.04998 5.8093 2.80998 5.6693 2.53998L5.3293 1.92998C5.2211 1.70825 5.09746 1.49439 4.9593 1.28998C4.91817 1.22897 4.87129 1.17204 4.8193 1.11998C4.79323 1.07142 4.75541 1.03017 4.7093 0.999982C4.62699 0.981482 4.5416 0.981482 4.4593 0.999982Z" fill="#FF8E01"/>
</g>
<defs>
<clipPath id="clip0">
<rect x="0.0390625" width="18.28" height="18.28" fill="white"/>
</clipPath>
</defs>
</svg>
