<svg width="29" height="29" viewBox="0 0 29 29" fill="none" xmlns="http://www.w3.org/2000/svg">
<path d="M28.73 22.7568C28.73 23.1184 28.6631 23.5905 28.5291 24.1731C28.3952 24.7557 28.2546 25.2144 28.1073 25.5492C27.826 26.2188 27.0091 26.9286 25.6564 27.6786C24.3975 28.3617 23.1519 28.7032 21.9198 28.7032C21.5582 28.7032 21.2066 28.6798 20.8651 28.6329C20.5236 28.586 20.1385 28.5023 19.71 28.3818C19.2814 28.2612 18.9633 28.1641 18.7557 28.0905C18.5481 28.0168 18.1765 27.8795 17.6408 27.6786C17.105 27.4778 16.7769 27.3572 16.6564 27.317C15.3439 26.8483 14.172 26.2925 13.1408 25.6496C11.4265 24.5916 9.65527 23.1485 7.82715 21.3204C5.99902 19.4923 4.55594 17.7211 3.49791 16.0068C2.85505 14.9755 2.29925 13.8036 1.8305 12.4911C1.79032 12.3706 1.66978 12.0425 1.46889 11.5068C1.268 10.9711 1.13072 10.5994 1.05706 10.3918C0.983398 10.1842 0.8863 9.86614 0.765764 9.43757C0.645229 9.009 0.561523 8.62395 0.514648 8.28244C0.467773 7.94092 0.444336 7.58936 0.444336 7.22775C0.444336 5.99561 0.785854 4.75007 1.46889 3.49114C2.21889 2.13846 2.92871 1.3215 3.59835 1.04025C3.93317 0.892927 4.39188 0.752302 4.97447 0.618373C5.55706 0.484445 6.02916 0.41748 6.39076 0.41748C6.57826 0.41748 6.71889 0.43757 6.81264 0.477748C7.05371 0.558105 7.40862 1.06703 7.87737 2.00453C8.02469 2.259 8.22558 2.62061 8.48005 3.08936C8.73451 3.55811 8.96889 3.98333 9.18317 4.36503C9.39746 4.74672 9.60505 5.10498 9.80594 5.4398C9.84612 5.49337 9.96331 5.66078 10.1575 5.94204C10.3517 6.22329 10.4957 6.46101 10.5894 6.6552C10.6832 6.8494 10.73 7.04025 10.73 7.22775C10.73 7.49561 10.5392 7.83043 10.1575 8.23221C9.77581 8.634 9.36063 9.0023 8.91197 9.33712C8.46331 9.67195 8.04813 10.0269 7.66643 10.4019C7.28474 10.7769 7.09389 11.0849 7.09389 11.326C7.09389 11.4465 7.12737 11.5972 7.19433 11.778C7.2613 11.9588 7.31822 12.0961 7.36509 12.1898C7.41197 12.2836 7.50572 12.4443 7.64634 12.6719C7.78697 12.8996 7.86398 13.0269 7.87737 13.0536C8.89523 14.8885 10.0604 16.4621 11.3729 17.7746C12.6854 19.0871 14.2591 20.2523 16.0939 21.2702C16.1207 21.2836 16.2479 21.3606 16.4756 21.5012C16.7033 21.6418 16.864 21.7356 16.9577 21.7824C17.0515 21.8293 17.1887 21.8862 17.3696 21.9532C17.5504 22.0202 17.701 22.0536 17.8216 22.0536C18.0626 22.0536 18.3707 21.8628 18.7457 21.4811C19.1207 21.0994 19.4756 20.6842 19.8104 20.2356C20.1452 19.7869 20.5135 19.3717 20.9153 18.99C21.3171 18.6083 21.6519 18.4175 21.9198 18.4175C22.1073 18.4175 22.2981 18.4644 22.4923 18.5581C22.6865 18.6519 22.9242 18.7958 23.2055 18.99C23.4867 19.1842 23.6541 19.3014 23.7077 19.3416C24.0425 19.5425 24.4008 19.7501 24.7825 19.9644C25.1642 20.1786 25.5894 20.413 26.0582 20.6675C26.5269 20.9219 26.8885 21.1228 27.143 21.2702C28.0805 21.7389 28.5894 22.0938 28.6698 22.3349C28.7099 22.4286 28.73 22.5693 28.73 22.7568Z" fill="white"/>
</svg>
