<svg width="50" height="30" viewBox="0 0 50 30" fill="none" xmlns="http://www.w3.org/2000/svg">
<path d="M25 0C15.447 0 6.78378 5.26081 0.391224 13.8058C-0.130408 14.5058 -0.130408 15.4839 0.391224 16.1839C6.78378 24.7392 15.447 30 25 30C34.553 30 43.2162 24.7392 49.6088 16.1942C50.1304 15.4942 50.1304 14.5161 49.6088 13.8161C43.2162 5.26081 34.553 0 25 0ZM25.6853 25.5628C19.3439 25.9643 14.1071 20.7035 14.506 14.3102C14.8333 9.03912 19.0779 4.76664 24.3147 4.4372C30.6561 4.03569 35.8929 9.2965 35.494 15.6898C35.1565 20.9506 30.9118 25.2231 25.6853 25.5628ZM25.3682 20.6829C21.952 20.8991 19.1291 18.0679 19.3541 14.6294C19.528 11.7879 21.8191 9.49211 24.642 9.3068C28.0582 9.0906 30.8812 11.9218 30.6561 15.3603C30.472 18.2121 28.1809 20.5079 25.3682 20.6829Z" fill="#FF8E01"/>
</svg>
