<svg width="24" height="24" viewBox="0 0 24 24" fill="none" xmlns="http://www.w3.org/2000/svg">
<g clip-path="url(#clip0)">
<path d="M11.8397 3.97694V0.840576L7.65789 5.02239L11.8397 9.20421V6.06785C15.2897 6.06785 18.1124 8.89058 18.1124 12.3406C18.1124 13.386 17.7988 14.4315 17.3806 15.2678L18.9488 16.836C19.6806 15.4769 20.2033 14.0133 20.2033 12.3406C20.2033 7.74058 16.4397 3.97694 11.8397 3.97694ZM11.8397 18.6133C8.38971 18.6133 5.56698 15.7906 5.56698 12.3406C5.56698 11.2951 5.88062 10.2497 6.2988 9.4133L4.73062 7.84512C3.9988 9.20421 3.47607 10.6678 3.47607 12.3406C3.47607 16.9406 7.23971 20.7042 11.8397 20.7042V23.8406L16.0215 19.6588L11.8397 15.4769V18.6133Z" fill="#FF8E01"/>
</g>
<defs>
<clipPath id="clip0">
<rect x="0.339844" y="0.840576" width="23" height="23" fill="white"/>
</clipPath>
</defs>
</svg>
