<svg width="23" height="24" viewBox="0 0 23 24" fill="none" xmlns="http://www.w3.org/2000/svg">
<path d="M6.57571 12.9847L11.1144 17.0871C11.3365 17.2878 11.6824 17.2878 11.9045 17.0871L16.4432 12.9847C16.6752 12.7751 16.6865 12.4243 16.4684 12.2012C16.2502 11.9782 15.8852 11.9674 15.6532 12.177L12.0861 15.401V1.21172C12.0861 0.905516 11.828 0.657349 11.5095 0.657349C11.1909 0.657349 10.9328 0.905516 10.9328 1.21172V15.401L7.36567 12.1772C7.13366 11.9674 6.76875 11.9782 6.55048 12.2012C6.33243 12.4245 6.34369 12.7753 6.57571 12.9849V12.9847Z" fill="#FF8E01"/>
<path d="M19.8494 4.77649H16.9254C16.6069 4.77649 16.3487 5.02466 16.3487 5.33086C16.3487 5.63706 16.6069 5.88523 16.9254 5.88523H19.8494C20.8045 5.88631 21.5782 6.63016 21.5794 7.54834V20.6148C21.5782 21.533 20.8045 22.2768 19.8494 22.2779H3.1689C2.21382 22.2768 1.44007 21.533 1.43895 20.6148V7.54834C1.44007 6.63016 2.21382 5.88631 3.1689 5.88523H6.09315C6.41143 5.88523 6.6698 5.63706 6.6698 5.33086C6.6698 5.02466 6.41143 4.77649 6.09315 4.77649H3.1689C1.57725 4.77822 0.287447 6.01819 0.285645 7.54834V20.6148C0.287447 22.145 1.57725 23.3849 3.1689 23.3867H19.8494C21.4411 23.3849 22.7309 22.145 22.7327 20.6148V7.54834C22.7309 6.01819 21.4411 4.77822 19.8494 4.77649Z" fill="#FF8E01"/>
</svg>
