<svg width="65" height="59" viewBox="0 0 65 59" fill="none" xmlns="http://www.w3.org/2000/svg">
<path d="M34.9043 2.9668C34.9043 1.91497 34.0518 1.0625 33 1.0625C31.9482 1.0625 31.0957 1.91497 31.0957 2.9668V11.1255C31.0957 12.1773 31.9482 13.0298 33 13.0298C34.0518 13.0298 34.9043 12.1773 34.9043 11.1255V2.9668Z" fill="#FF8E01"/>
<path d="M23.4949 14.5119C23.8663 14.8834 24.3538 15.0698 24.8413 15.0698C25.3283 15.0698 25.8158 14.8839 26.1877 14.5119C26.9311 13.7681 26.9311 12.5625 26.1877 11.8187L22.1078 7.7393C21.3645 6.99543 20.1589 6.99543 19.415 7.7393C18.6712 8.48316 18.6712 9.68872 19.415 10.4326L23.4949 14.5119Z" fill="#FF8E01"/>
<path d="M41.1587 15.0693C41.6462 15.0693 42.1337 14.8834 42.5051 14.5114L46.585 10.4321C47.3283 9.68872 47.3283 8.48267 46.585 7.7393C45.8411 6.99543 44.6356 6.99543 43.8917 7.7393L39.8123 11.8187C39.0685 12.5625 39.0685 13.7681 39.8123 14.5114C40.1843 14.8834 40.6717 15.0693 41.1587 15.0693Z" fill="#FF8E01"/>
<path d="M18.5864 19.5551C18.5864 15.1311 14.9871 11.5317 10.563 11.5317C6.13902 11.5317 2.5397 15.1311 2.5397 19.5551C2.5397 23.9796 6.13902 27.5789 10.563 27.5789C14.9871 27.5789 18.5864 23.9796 18.5864 19.5551Z" fill="#FF8E01"/>
<path d="M63.4603 19.5551C63.4603 15.1311 59.861 11.5317 55.437 11.5317C51.013 11.5317 47.4137 15.1311 47.4137 19.5551C47.4137 23.9796 51.013 27.5789 55.437 27.5789C59.861 27.5789 63.4603 23.9796 63.4603 19.5551Z" fill="#FF8E01"/>
<path fill-rule="evenodd" clip-rule="evenodd" d="M30.8918 21.7315C30.8126 20.0579 28.834 19.2176 27.5747 20.3228L16.8781 29.711C19.8894 30.9486 22.091 33.82 22.3073 37.2876L22.3793 38.4431L30.6089 30.8261C31.042 30.4252 31.276 29.8534 31.2481 29.2638L30.8918 21.7315Z" fill="#373F48"/>
<path fill-rule="evenodd" clip-rule="evenodd" d="M33.4429 21.6555C33.522 19.9819 35.5007 19.1417 36.7599 20.2469L47.4565 29.6351C44.4452 30.8726 42.2436 33.7441 42.0274 37.2117L41.9553 38.3672L33.7258 30.7502C33.2926 30.3493 33.0586 29.7775 33.0865 29.1879L33.4429 21.6555Z" fill="#373F48"/>
<path d="M0.950195 39.3079C0.950195 33.785 5.49814 29.3079 11.021 29.3079C16.5438 29.3079 21.0918 33.785 21.0918 39.3079V55.9489C21.0918 57.0535 20.1963 57.9489 19.0918 57.9489H2.95019C1.84562 57.9489 0.950195 57.0535 0.950195 55.9489V39.3079Z" fill="#373F48"/>
<path d="M63.3844 39.2319C63.3844 33.7091 58.8365 29.2319 53.3136 29.2319C47.7908 29.2319 43.2428 33.7091 43.2428 39.2319V55.873C43.2428 56.9775 44.1383 57.873 45.2428 57.873H61.3844C62.489 57.873 63.3844 56.9775 63.3844 55.873V39.2319Z" fill="#373F48"/>
</svg>
