<svg width="108" height="107" viewBox="0 0 108 107" fill="none" xmlns="http://www.w3.org/2000/svg">
<g filter="url(#filter0_d)">
<circle cx="54.2735" cy="49.4239" r="33.4239" fill="#5AB87F"/>
</g>
<path d="M68.6573 58.7568C68.6573 59.1184 68.5903 59.5905 68.4564 60.1731C68.3225 60.7557 68.1818 61.2144 68.0345 61.5492C67.7533 62.2188 66.9363 62.9286 65.5836 63.6786C64.3247 64.3617 63.0792 64.7032 61.847 64.7032C61.4854 64.7032 61.1339 64.6798 60.7923 64.6329C60.4508 64.586 60.0658 64.5023 59.6372 64.3818C59.2086 64.2612 58.8905 64.1641 58.683 64.0905C58.4754 64.0168 58.1037 63.8795 57.568 63.6786C57.0323 63.4778 56.7042 63.3572 56.5836 63.317C55.2711 62.8483 54.0993 62.2925 53.068 61.6496C51.3537 60.5916 49.5825 59.1485 47.7544 57.3204C45.9263 55.4923 44.4832 53.7211 43.4252 52.0068C42.7823 50.9755 42.2265 49.8036 41.7577 48.4911C41.7176 48.3706 41.597 48.0425 41.3961 47.5068C41.1952 46.9711 41.058 46.5994 40.9843 46.3918C40.9106 46.1842 40.8135 45.8661 40.693 45.4376C40.5725 45.009 40.4888 44.624 40.4419 44.2824C40.395 43.9409 40.3716 43.5894 40.3716 43.2277C40.3716 41.9956 40.7131 40.7501 41.3961 39.4911C42.1461 38.1385 42.856 37.3215 43.5256 37.0402C43.8604 36.8929 44.3191 36.7523 44.9017 36.6184C45.4843 36.4844 45.9564 36.4175 46.318 36.4175C46.5055 36.4175 46.6461 36.4376 46.7399 36.4777C46.981 36.5581 47.3359 37.067 47.8046 38.0045C47.9519 38.259 48.1528 38.6206 48.4073 39.0894C48.6618 39.5581 48.8961 39.9833 49.1104 40.365C49.3247 40.7467 49.5323 41.105 49.7332 41.4398C49.7734 41.4934 49.8906 41.6608 50.0847 41.942C50.2789 42.2233 50.4229 42.461 50.5167 42.6552C50.6104 42.8494 50.6573 43.0402 50.6573 43.2277C50.6573 43.4956 50.4664 43.8304 50.0847 44.2322C49.7031 44.634 49.2879 45.0023 48.8392 45.3371C48.3906 45.6719 47.9754 46.0269 47.5937 46.4019C47.212 46.7769 47.0211 47.0849 47.0211 47.326C47.0211 47.4465 47.0546 47.5972 47.1216 47.778C47.1885 47.9588 47.2455 48.0961 47.2923 48.1898C47.3392 48.2836 47.433 48.4443 47.5736 48.6719C47.7142 48.8996 47.7912 49.0269 47.8046 49.0536C48.8225 50.8885 49.9876 52.4621 51.3001 53.7746C52.6126 55.0871 54.1863 56.2523 56.0211 57.2702C56.0479 57.2836 56.1751 57.3606 56.4028 57.5012C56.6305 57.6418 56.7912 57.7356 56.885 57.7824C56.9787 57.8293 57.116 57.8862 57.2968 57.9532C57.4776 58.0202 57.6283 58.0536 57.7488 58.0536C57.9899 58.0536 58.2979 57.8628 58.6729 57.4811C59.0479 57.0994 59.4028 56.6842 59.7376 56.2356C60.0725 55.7869 60.4408 55.3717 60.8426 54.99C61.2443 54.6083 61.5792 54.4175 61.847 54.4175C62.0345 54.4175 62.2254 54.4644 62.4196 54.5581C62.6138 54.6519 62.8515 54.7958 63.1327 54.99C63.414 55.1842 63.5814 55.3014 63.635 55.3416C63.9698 55.5425 64.328 55.7501 64.7097 55.9644C65.0914 56.1786 65.5167 56.413 65.9854 56.6675C66.4542 56.9219 66.8158 57.1228 67.0702 57.2702C68.0077 57.7389 68.5167 58.0938 68.597 58.3349C68.6372 58.4286 68.6573 58.5693 68.6573 58.7568Z" fill="white"/>
<defs>
<filter id="filter0_d" x="0.849609" y="0" width="106.848" height="106.848" filterUnits="userSpaceOnUse" color-interpolation-filters="sRGB">
<feFlood flood-opacity="0" result="BackgroundImageFix"/>
<feColorMatrix in="SourceAlpha" type="matrix" values="0 0 0 0 0 0 0 0 0 0 0 0 0 0 0 0 0 0 127 0"/>
<feOffset dy="4"/>
<feGaussianBlur stdDeviation="10"/>
<feColorMatrix type="matrix" values="0 0 0 0 0.215686 0 0 0 0 0.247059 0 0 0 0 0.282353 0 0 0 0.2 0"/>
<feBlend mode="normal" in2="BackgroundImageFix" result="effect1_dropShadow"/>
<feBlend mode="normal" in="SourceGraphic" in2="effect1_dropShadow" result="shape"/>
</filter>
</defs>
</svg>
