<svg width="18" height="23" viewBox="0 0 18 23" fill="none" xmlns="http://www.w3.org/2000/svg">
<path d="M8.83666 21.9517L8.83664 21.9517C8.68208 21.7937 6.69836 19.751 4.75767 17.0854C3.78724 15.7525 2.8377 14.2775 2.13307 12.8152C1.42399 11.3437 0.988379 9.93669 0.988379 8.72586C0.988379 4.77932 4.50633 1.47422 8.94893 1.47422C13.3915 1.47422 16.9094 4.77931 16.9095 8.72586C16.9095 9.93669 16.4739 11.3437 15.7648 12.8152C15.0602 14.2775 14.1106 15.7525 13.1402 17.0854C11.1995 19.751 9.21578 21.7937 9.06122 21.9517L9.06119 21.9517C9.04142 21.9719 9.00325 21.9923 8.94893 21.9923C8.89469 21.9923 8.85657 21.972 8.83666 21.9517Z" stroke="#FF8E01" stroke-width="1.3"/>
<circle cx="9.01221" cy="9.026" r="2.85" stroke="#FF8E01" stroke-width="1.3"/>
</svg>
