<svg width="20" height="20" viewBox="0 0 20 20" fill="none" xmlns="http://www.w3.org/2000/svg">
<path d="M10 0C4.47715 0 0 4.47715 0 10C0 15.5228 4.47715 20 10 20C15.5228 20 20 15.5228 20 10C19.9941 4.47962 15.5204 0.00590124 10 0ZM10 18.5714C5.26612 18.5714 1.42856 14.7339 1.42856 10C1.42856 5.26612 5.26612 1.42856 10 1.42856C14.7339 1.42856 18.5714 5.26612 18.5714 10C18.5663 14.7318 14.7318 18.5663 10 18.5714Z" fill="white"/>
<path d="M15.4874 5.92366C15.2106 5.65631 14.7717 5.65631 14.495 5.92366L7.85707 12.5615L5.5049 10.2093C5.23085 9.92558 4.77863 9.91775 4.49491 10.1918C4.21115 10.4659 4.20332 10.9181 4.47738 11.2018C4.48311 11.2077 4.48897 11.2136 4.49491 11.2193L7.35207 14.0765C7.63098 14.3554 8.08316 14.3554 8.36206 14.0765L15.5049 6.93361C15.779 6.64989 15.7711 6.19771 15.4874 5.92366Z" fill="white"/>
</svg>
