<svg width="30" height="30" viewBox="0 0 30 30" fill="none" xmlns="http://www.w3.org/2000/svg">
<path d="M29.9054 13.2723C29.8417 13.1198 29.7504 12.981 29.6342 12.8648L25.8852 9.11599C25.3964 8.62849 24.6064 8.62849 24.1176 9.11599C23.6289 9.60472 23.6289 10.396 24.1176 10.8835L25.734 12.4997H18.751C18.0598 12.4997 17.501 13.0597 17.501 13.7497C17.501 14.4397 18.0598 14.9997 18.751 14.9997H25.7339L24.1176 16.6159C23.6288 17.1046 23.6288 17.8959 24.1176 18.3834C24.3613 18.6284 24.6813 18.7497 25.0014 18.7497C25.3214 18.7497 25.6414 18.6284 25.8852 18.3834L29.6342 14.6346C29.7504 14.5196 29.8417 14.3809 29.9054 14.2271C30.0316 13.9223 30.0316 13.5773 29.9054 13.2723Z" fill="#FF8E01"/>
<path d="M21.2511 17.5C20.5598 17.5 20.0011 18.06 20.0011 18.75V25H15.0008V4.99997C15.0008 4.44872 14.6383 3.96122 14.1095 3.80249L9.76798 2.50001H20.0011V8.75002C20.0011 9.44002 20.5598 10 21.2511 10C21.9424 10 22.5011 9.44002 22.5011 8.75002V1.25004C22.5011 0.559979 21.9424 0 21.2511 0H1.25005C1.20505 0 1.16502 0.01875 1.12131 0.0237304C1.06254 0.0299999 1.0088 0.0399609 0.952551 0.0537304C0.821294 0.0874803 0.702518 0.13875 0.591301 0.208711C0.563819 0.22623 0.530068 0.227461 0.503816 0.247441C0.493737 0.255 0.489987 0.268769 0.479967 0.276269C0.343729 0.38373 0.229993 0.51498 0.147488 0.671249C0.129968 0.704999 0.126218 0.741268 0.112506 0.776249C0.0724844 0.871229 0.0287711 0.963748 0.0137703 1.06875C0.0075004 1.10625 0.018751 1.14123 0.0175205 1.1775C0.0162899 1.20252 0 1.22502 0 1.24998V26.2499C0 26.8462 0.421253 27.3587 1.00505 27.475L13.5057 29.975C13.587 29.9925 13.6695 30 13.7507 30C14.0369 30 14.3182 29.9013 14.5432 29.7162C14.832 29.4788 15.0007 29.125 15.0007 28.75V27.5H21.2511C21.9424 27.5 22.5011 26.94 22.5011 26.25V18.75C22.5011 18.06 21.9424 17.5 21.2511 17.5Z" fill="#FF8E01"/>
</svg>
